<?xml version="1.0" encoding="utf-8"?>
<!-- Generator: Adobe Illustrator 19.2.0, SVG Export Plug-In . SVG Version: 6.00 Build 0)  -->
<svg version="1.1" id="Layer_1" xmlns="http://www.w3.org/2000/svg" xmlns:xlink="http://www.w3.org/1999/xlink" x="0px" y="0px"
	 viewBox="0 0 1000 200" enable-background="new 0 0 1000 200" xml:space="preserve">
<path fill="#F58554" d="M601,20c-44.1,0-80,35.9-80,80s35.9,80,80,80c44.1,0,80-35.9,80-80S645.1,20,601,20z M601,148
	c-26.5,0-48-21.5-48-48s21.5-48,48-48c26.5,0,48,21.5,48,48S627.5,148,601,148z M277,20c-44.1,0-80,35.9-80,80s35.9,80,80,80
	s80-35.9,80-80S321.1,20,277,20z M277,148c-26.5,0-48-21.5-48-48s21.5-48,48-48s48,21.5,48,48S303.5,148,277,148z M389,175.2h32V116
	h70.2V84H421V56.8h72v-32H389V175.2z M973,56.8v-32H869v150.4h104v-32h-72V116h68.8V84H901V56.8H973z M833,80.4
	c-0.2-30.6-25.6-55.6-56.5-55.6H713v150.4h32v-38.4h26.6l23.2,38.4h37.4l-27.6-45.7c4.4-2.5,8.5-5.6,12.1-9.3
	C827.3,109.6,833.1,95.4,833,80.4z M794,97.7c-4.5,4.6-10.6,7.1-17,7.1h-32v-48h31.5c13.4,0,24.4,10.7,24.5,23.8
	C801,87.1,798.6,93.1,794,97.7z M144.4,122.8h-4.8v12.4c-8.9,8.3-20.4,12.8-32.6,12.8c-12.8,0-24.9-5-33.9-14.1
	C64,124.9,59,112.8,59,100s5-24.9,14.1-33.9C82.1,57,94.2,52,107,52c12.8,0,24.9,5,33.9,14.1l22.6-22.6C148.5,28.3,128.4,20,107,20
	c-21.4,0-41.5,8.3-56.6,23.4C35.3,58.5,27,78.6,27,100s8.3,41.5,23.4,56.6S85.6,180,107,180c21.4,0,41.5-8.3,56.6-23.4
	c1.9-1.9,3.7-4,5.4-6.1C168.2,140.7,164.1,122.8,144.4,122.8z M140.1,82.6h-38.5v31.8h42.9c12.1,0,21.5,5.4,27.2,15v-11
	c0-10.3-2.6-18.7-7.8-25C158.1,86.4,149.6,82.6,140.1,82.6z"/>
</svg>
