<svg id="Layer_1" data-name="Layer 1" xmlns="http://www.w3.org/2000/svg" viewBox="0 0 221.26 165.57"><defs><style>.cls-1{fill:#fff;}</style></defs><path class="cls-1" d="M210.69,299.14l7.91,14.47c6.72,11.86,9.35,16.76,22.45,16.92h9.77l48.31,88c3.66,6.59,6.46,6.8,17.55,6.8h26.56L277.81,307.76c-3.68-7.31-6.53-8.42-14.73-8.59-17.35-.36-35,0-52.39,0" transform="translate(-195.37 -299)"/><path class="cls-1" d="M351.22,418.54c3.62,6.6,6.41,6.81,16.79,6.81h27.28c-19-34.3-46.64-85.69-66.53-119.5-3.67-6.59-6.46-6.81-17.56-6.81H284.64c19.51,34.31,47.58,84.91,66.58,119.5" transform="translate(-195.37 -299)"/><path class="cls-1" d="M249,418.5c-3.62,6.6-6.41,6.81-17.5,6.81H205l43.46-77.44,20.19,36.81Z" transform="translate(-195.37 -299)"/><path class="cls-1" d="M384.55,437.62a1.21,1.21,0,0,1,.9-.34H408.6a10.56,10.56,0,0,1,3.44.51,6.41,6.41,0,0,1,2.57,1.6h0a6.77,6.77,0,0,1,1.52,2.51,9.47,9.47,0,0,1,.5,3.2v11.41a9.41,9.41,0,0,1-.5,3.19,7,7,0,0,1-1.51,2.52,6.49,6.49,0,0,1-2.57,1.64,10.13,10.13,0,0,1-3.45.53H385.45a1.21,1.21,0,0,1-.89-.33,1.22,1.22,0,0,1-.35-.9V438.52a1.22,1.22,0,0,1,.34-.9m24.94,20.27a2.31,2.31,0,0,0,.26-1.38V445.1a2.28,2.28,0,0,0-.23-1.3l0,0c-.14-.16-.44-.21-.9-.21H391.1v14.54h17.5C409.05,458.11,409.35,458.05,409.49,457.89Z" transform="translate(-195.37 -299)"/><path class="cls-1" d="M360.3,454.53l-.5-.84c-.92-1.55-2.08-3.53-4.69-7.89-3.2,5.34-4.22,7.05-5.16,8.64l0,0,0,.06Zm12.28,9.72a1.25,1.25,0,0,1-.61.15h-5a1.7,1.7,0,0,1-1.4-1l-1.7-2.84H346.29l-1.68,2.8,0,0a2.88,2.88,0,0,1-.53.66,1.28,1.28,0,0,1-.82.34h-5a1.29,1.29,0,0,1-.62-.15h0a1,1,0,0,1-.41-.36,1.06,1.06,0,0,1-.17-.57,1.25,1.25,0,0,1,.13-.54.56.56,0,0,1,0-.08L352,438.2h0a2.66,2.66,0,0,1,.49-.61,1.21,1.21,0,0,1,.8-.31h3.56a1.15,1.15,0,0,1,.77.31,2.64,2.64,0,0,1,.5.6h0L373,462.66a.22.22,0,0,1,0,.08,1.21,1.21,0,0,1,.15.57,1,1,0,0,1-.17.57h0A1,1,0,0,1,372.58,464.25Z" transform="translate(-195.37 -299)"/><path class="cls-1" d="M319.46,437.62a1.18,1.18,0,0,1,.9-.34h4.5a1.13,1.13,0,0,1,1.14,1.19h0v24.69a1.25,1.25,0,0,1-.31.87l0,0h0a1.2,1.2,0,0,1-.89.35H319.3a1.2,1.2,0,0,1-.63-.22h0a5,5,0,0,1-.47-.36h0l0,0L299.8,446.31v16.85a1.25,1.25,0,0,1-.31.87l0,0h0a1.18,1.18,0,0,1-.89.35h-4.42a1.24,1.24,0,0,1-.84-.29l-.06-.05a1.21,1.21,0,0,1-.34-.9V438.52a1.17,1.17,0,0,1,1.24-1.24h5.48a1,1,0,0,1,.59.2h0a5.31,5.31,0,0,1,.45.34l.06.05,18.35,17.41V438.52a1.18,1.18,0,0,1,.34-.9" transform="translate(-195.37 -299)"/><path class="cls-1" d="M251.17,437.65a10,10,0,0,1,3.48-.56h18.26a10,10,0,0,1,3.48.56,6.33,6.33,0,0,1,2.59,1.73h0a7.72,7.72,0,0,1,1.51,2.67,10.67,10.67,0,0,1,.49,3.37v10.82a10.82,10.82,0,0,1-.49,3.38,7.37,7.37,0,0,1-1.52,2.66,6.32,6.32,0,0,1-2.59,1.74,10,10,0,0,1-3.48.55H254.65a10,10,0,0,1-3.42-.53l-.06,0a6.38,6.38,0,0,1-2.58-1.74h0a7.54,7.54,0,0,1-1.51-2.65,10.82,10.82,0,0,1-.49-3.38V445.42a10.77,10.77,0,0,1,.49-3.38,7.63,7.63,0,0,1,1.51-2.67h0a6.22,6.22,0,0,1,2.57-1.71M274,457.46a6.76,6.76,0,0,0,.09-1.22V445.42a6.64,6.64,0,0,0-.09-1.21,1.49,1.49,0,0,0-.19-.56h0a.53.53,0,0,0-.25-.17,2,2,0,0,0-.67-.09H254.65c-.45,0-.74.07-.89.28a3.34,3.34,0,0,0-.29,1.75v10.82a3.28,3.28,0,0,0,.3,1.76c.14.21.43.29.88.29h18.26a2,2,0,0,0,.66-.09.53.53,0,0,0,.25-.17h0A1.49,1.49,0,0,0,274,457.46Z" transform="translate(-195.37 -299)"/><path class="cls-1" d="M226.39,437.56a1.3,1.3,0,0,1,.8-.28h6.24a1.17,1.17,0,0,1,1.24,1.24v24.64a1.25,1.25,0,0,1-.34.9h0a1.25,1.25,0,0,1-.9.34H229a1.22,1.22,0,0,1-.88-.33h0a1.21,1.21,0,0,1-.33-.89V447.92l-9.71,15.6h0a2.11,2.11,0,0,1-.49.59h0a1.24,1.24,0,0,1-.78.29h-3.56a1.24,1.24,0,0,1-.78-.29h0a2.5,2.5,0,0,1-.5-.59l-9.72-15.6v15.24a1.25,1.25,0,0,1-.31.87l0,0h0a1.2,1.2,0,0,1-.89.35h-4.42a1.25,1.25,0,0,1-.85-.29l0-.05a1.21,1.21,0,0,1-.34-.9V438.52a1.17,1.17,0,0,1,1.24-1.24h6.28a1.28,1.28,0,0,1,.8.28,1.89,1.89,0,0,1,.53.61L215,455.52l10.86-17.34h0a1.92,1.92,0,0,1,.52-.62" transform="translate(-195.37 -299)"/></svg>