<?xml version="1.0" encoding="UTF-8"?>
<svg width="254.53pt" xmlns:xlink="http://www.w3.org/1999/xlink" xmlns="http://www.w3.org/2000/svg" height="112pt" viewBox="0 0 254.53 112" >
 <g transform="translate(0, 0)" style="fill:#d8001f; fill-rule:nonzero; stroke:none; stroke-width:1; stroke-linecap:butt; stroke-linejoin:miter; stroke-dasharray:none;" >
  <path d="M12.5547 37.558 C12.2246 39.193 12.1211 41.814 12.1211 45.195 C12.1211 45.195 12.1211 70.04 12.1211 70.04 C12.1211 74.074 12.2246 76.587 12.5547 77.679 C16.9277 78.884 23.4384 79.388 28.6914 79.388 C34.582 79.388 40.9987 78.661 44.8227 77.579 C45.1447 76.478 45.2607 73.966 45.2607 70.04 C45.2607 70.04 45.2607 37.118 45.2607 37.118 C40.5607 36.359 33.9287 35.847 28.5761 35.847 C23.4384 35.847 17.249 36.574 12.5547 37.558 Z M0 74.404 C0 74.404 0 40.716 0 40.716 C0 36.468 0.1074 32.747 0.8759 29.589 C8.7363 27.077 19.5127 25.581 28.6914 25.581 C33.9287 25.581 40.4507 26.095 45.2607 26.744 C45.2607 26.744 45.2607 0 45.2607 0 C45.2607 0 57.3777 0 57.3777 0 C57.3777 0 57.3777 74.404 57.3777 74.404 C57.3777 78.447 57.2697 82.158 56.5017 85.654 C48.9707 88.158 37.5327 89.656 28.6914 89.656 C19.415 89.656 9.1709 88.265 1.0937 85.761 C0.33 82.158 0 78.331 0 74.404 " />
 </g>
 <g transform="translate(72.8707, 26.21)" style="fill:#d8001f; fill-rule:nonzero; stroke:none; stroke-width:1; stroke-linecap:butt; stroke-linejoin:miter; stroke-dasharray:none;" >
  <path d="M12.228 62.824 C12.228 62.824 0 62.824 0 62.824 C0 62.824 0 0 0 0 C0 0 12.228 0 12.228 0 C12.228 0 12.228 62.824 12.228 62.824 Z" />
 </g>
 <g transform="translate(100.596, 25.581)" style="fill:#d8001f; fill-rule:nonzero; stroke:none; stroke-width:1; stroke-linecap:butt; stroke-linejoin:miter; stroke-dasharray:none;" >
  <path d="M43.84 51.121 C43.84 51.121 43.84 19.614 43.84 19.614 C43.84 16.01 43.731 13.612 43.294 11.977 C39.037 10.993 33.281 10.267 28.036 10.267 C22.908 10.267 17.036 10.993 12.776 11.977 C12.35 13.612 12.126 16.233 12.126 19.614 C12.126 19.614 12.126 43.039 12.126 43.039 C12.126 46.536 12.35 49.039 12.776 50.684 C16.818 51.881 22.688 52.395 27.921 52.395 C33.061 52.395 39.037 51.998 43.84 51.121 Z M43.405 73.282 C43.731 71.86 43.84 69.998 43.84 67.817 C43.84 67.817 43.84 61.379 43.84 61.379 C38.932 61.924 32.843 62.323 28.036 62.323 C18.87 62.323 8.52 60.94 0.984 58.428 C0.33 54.717 0 51.006 0 47.178 C0 47.178 0 15.135 0 15.135 C0 11.207 0.33 7.496 0.984 4.008 C8.52 1.496 18.87 0 28.036 0 C37.096 0 47.112 1.496 55.085 4.008 C55.849 7.614 55.957 11.207 55.957 15.135 C55.957 15.135 55.957 74.596 55.957 74.596 C52.469 84.745 41.901 86.422 28.801 86.422 C23.126 86.422 15.144 85.44 8.737 84.19 C8.737 84.19 8.737 74.62 8.737 74.62 C15.144 75.875 24.669 76.76 32.409 76.405 C36.657 76.215 41.327 75.131 43.405 73.282 " />
 </g>
 <g transform="translate(172.05, 26.21)" style="fill:#d8001f; fill-rule:nonzero; stroke:none; stroke-width:1; stroke-linecap:butt; stroke-linejoin:miter; stroke-dasharray:none;" >
  <path d="M12.233 62.824 C12.233 62.824 0 62.824 0 62.824 C0 62.824 0 0 0 0 C0 0 12.233 0 12.233 0 C12.233 0 12.233 62.824 12.233 62.824 Z" />
 </g>
 <g transform="translate(198.582, 25.581)" style="fill:#d8001f; fill-rule:nonzero; stroke:none; stroke-width:1; stroke-linecap:butt; stroke-linejoin:miter; stroke-dasharray:none;" >
  <path d="M1.099 28.069 C0.298 31.409 0 37.879 0 37.879 C0 37.879 0 48.823 0 48.823 Z M19.758 34.243 C19.758 34.243 43.938 34.243 43.938 34.243 C43.938 34.243 43.938 42.037 43.938 42.037 C43.938 45.194 43.987 49.582 43.499 52.162 C39.714 53.237 34.755 53.791 28.911 53.807 C28.614 53.807 28.316 53.799 28.019 53.799 C22.959 53.758 16.613 53.254 12.444 52.147 C12.01 49.774 11.798 46.411 11.798 44.311 C11.798 44.311 11.798 43.493 11.798 43.493 C11.798 41.717 11.819 37.59 12.554 35.012 C14.41 34.467 16.81 34.243 19.758 34.243 Z M55.078 4.118 C47.104 1.38 38.93 0 29.763 0 C21.902 0 9.72 1.274 2.731 3.348 C2.731 3.348 2.731 14.588 2.731 14.588 C2.731 14.588 8.732 14.588 8.732 14.588 C9.824 13.612 10.696 12.407 11.348 10.993 C13.65 10.448 18.554 9.934 27.713 9.934 C32.952 9.934 38.917 10.778 43.396 11.754 C43.722 14.705 43.938 17.547 43.938 20.268 C43.938 20.268 43.938 25.291 43.938 25.291 C43.938 25.291 17.58 25.291 17.58 25.291 C12.67 25.291 6.36 25.971 1.099 28.069 C0.298 31.409 0.041 35.194 0 37.879 C0 37.879 0 48.823 0 48.823 C0 52.75 0.335 56.577 1.099 60.18 C9.173 62.684 19.497 64.075 28.775 64.075 C37.616 64.075 47.55 62.741 55.078 60.237 C55.841 56.741 55.951 53.03 55.951 48.989 C55.951 48.989 55.951 17.547 55.951 17.547 C55.951 14.159 55.841 9.895 55.078 4.118 " />
 </g>
 <g transform="translate(72.6607, 0.901)" style="fill:#d8001f; fill-rule:nonzero; stroke:none; stroke-width:1; stroke-linecap:butt; stroke-linejoin:miter; stroke-dasharray:none;" >
  <path d="M12.232 12.968 C12.232 12.968 0 12.968 0 12.968 C0 12.968 0 0 0 0 C0 0 12.232 0 12.232 0 C12.232 0 12.232 12.968 12.232 12.968 Z" />
 </g>
 <g transform="translate(172.05, 0.901)" style="fill:#d8001f; fill-rule:nonzero; stroke:none; stroke-width:1; stroke-linecap:butt; stroke-linejoin:miter; stroke-dasharray:none;" >
  <path d="M12.233 12.968 C12.233 12.968 0 12.968 0 12.968 C0 12.968 0 0 0 0 C0 0 12.233 0 12.233 0 C12.233 0 12.233 12.968 12.233 12.968 Z" />
 </g>
</svg>
