<?xml version="1.0" encoding="UTF-8" standalone="no"?>
<!-- Created with Inkscape (http://www.inkscape.org/) -->

<svg
   xmlns:dc="http://purl.org/dc/elements/1.1/"
   xmlns:cc="http://creativecommons.org/ns#"
   xmlns:rdf="http://www.w3.org/1999/02/22-rdf-syntax-ns#"
   xmlns:svg="http://www.w3.org/2000/svg"
   xmlns="http://www.w3.org/2000/svg"
   xmlns:sodipodi="http://sodipodi.sourceforge.net/DTD/sodipodi-0.dtd"
   xmlns:inkscape="http://www.inkscape.org/namespaces/inkscape"
   version="1.1"
   id="svg2"
   xml:space="preserve"
   width="540.35864"
   height="150.76401"
   viewBox="0 0 540.35864 150.76401"
   sodipodi:docname="mylab-logo.svg"
   inkscape:version="0.92.2 5c3e80d, 2017-08-06"><metadata
     id="metadata8"><rdf:RDF><cc:Work
         rdf:about=""><dc:format>image/svg+xml</dc:format><dc:type
           rdf:resource="http://purl.org/dc/dcmitype/StillImage" /><dc:title></dc:title></cc:Work></rdf:RDF></metadata><defs
     id="defs6"><clipPath
       clipPathUnits="userSpaceOnUse"
       id="clipPath18"><path
         d="M 0,113.073 H 405.268 V 0 H 0 Z"
         id="path16"
         inkscape:connector-curvature="0" /></clipPath></defs><sodipodi:namedview
     pagecolor="#ffffff"
     bordercolor="#666666"
     borderopacity="1"
     objecttolerance="10"
     gridtolerance="10"
     guidetolerance="10"
     inkscape:pageopacity="0"
     inkscape:pageshadow="2"
     inkscape:window-width="1922"
     inkscape:window-height="943"
     id="namedview4"
     showgrid="false"
     inkscape:zoom="0.9031039"
     inkscape:cx="270.17932"
     inkscape:cy="75.382004"
     inkscape:window-x="0"
     inkscape:window-y="0"
     inkscape:window-maximized="0"
     inkscape:current-layer="g12" /><g
     id="g10"
     inkscape:groupmode="layer"
     inkscape:label="mylab_logo_black_cmyk_painettavaan käyttöön"
     transform="matrix(1.3333333,0,0,-1.3333333,0,150.764)"><g
       id="g12"><path
         d="m 271.4641,47.2451 h -28.92 c -1.251,0 -2.265,1.014 -2.265,2.265 0,1.251 1.014,2.265 2.265,2.265 h 28.92 z m -1.724,28.174 -34.421,0.039 v -9.553 h 31.872 c 2.356,0 4.289,-2.156 4.289,-4.513 l -32.436,0.023 c -6.632,0 -12.008,-5.194 -11.899,-11.867 0.107,-6.562 5.732,-11.705 12.295,-11.705 h 45.239 v 8.667 l -0.015,10.795 c 0,13.586 -4.915,18.114 -14.924,18.114"
         style="fill:#fffffa;fill-opacity:1;fill-rule:nonzero;stroke:none"
         id="path22"
         inkscape:connector-curvature="0" /><path
         d="M 189.426,55.058 V 75.455 H 168.735 L 148.359,53.773 127.984,75.455 106.299,75.402 89.164,53.077 70.793,75.402 H 57.535 V 37.811 H 70.793 V 56.95 L 84.19,40.266 h 9.947 L 106.303,56.95 V 37.811 h 13.228 l 0.005,29.841 22.369,-23.803 v -6.06 h 13.25 v 6.423 l 21.027,22.375 V 52.371 c 0,-8.041 6.516,-14.561 14.557,-14.564 l 34.077,-0.021 v 9.577 h -27.695 c -4.25,0 -7.695,3.445 -7.695,7.695"
         style="fill:#fffffa;fill-opacity:1;fill-rule:nonzero;stroke:none"
         id="path26"
         inkscape:connector-curvature="0" /><path
         d="m 331.6233,47.3627 h -29.184 v 4.553 l 29.184,0.009 c 1.251,0 2.265,-1.015 2.265,-2.265 0,-1.251 -1.014,-2.297 -2.265,-2.297 m -29.184,18.547 25.825,-0.069 c 1.251,0 2.264,-1.014 2.264,-2.265 0,-1.251 -1.013,-2.264 -2.264,-2.264 h -25.638 c -0.011,0 -0.018,0.009 -0.027,0.011 h -0.16 z m 40.377,-6.798 c 0.849,1.561 1.331,3.348 1.331,5.25 0,5.829 -4.374,11.096 -11.946,11.096 h -43.012 v -37.646 h 45.994 c 6.642,0 12.027,5.384 12.027,12.027 0,3.74 -1.715,7.07 -4.394,9.273"
         style="fill:#fffffa;fill-opacity:1;fill-rule:nonzero;stroke:none"
         id="path30"
         inkscape:connector-curvature="0" /></g></g></svg>