<svg id="Layer_1" data-name="Layer 1" xmlns="http://www.w3.org/2000/svg" xmlns:xlink="http://www.w3.org/1999/xlink" viewBox="0 0 607.51 147.85"><defs><style>.cls-1,.cls-2,.cls-3,.cls-4{fill:none;}.cls-2{clip-path:url(#clip-path);}.cls-2,.cls-3{clip-rule:evenodd;}.cls-3{clip-path:url(#clip-path-2);}.cls-4{clip-path:url(#clip-path-3);}.cls-5{clip-path:url(#clip-path-4);}</style><clipPath id="clip-path"><rect class="cls-1" x="-3" y="351.89" width="600" height="140"/></clipPath><clipPath id="clip-path-2"><path class="cls-2" d="M57.42,391.48c0,7.76-5.83,13.2-16.81,13.2H24.13V378.62H40.61c11,0,16.81,5.11,16.81,12.86Zm35.12,79.18-29.13-48c11.82-5.77,20.31-16.16,20.31-32.33,0-23.58-19.31-37.44-42.28-37.44H-2V470.66H24.13V428.27H37.61l25.64,42.39Zm65.14-51H119.74c1.17-7.25,8.32-15,19-15,10.82,0,18,7.6,19,15Zm23.14,17.16a68.57,68.57,0,0,0,.5-8.91c0-24.08-17.48-44-43.27-44-25.14,0-43.44,19.8-43.44,44.21,0,27.87,21.3,44.86,44.27,44.86,15.48,0,29.62-8.24,38-20.28L157,442.46c-4.16,4.94-9.82,8.74-17.81,8.74-10.15,0-17.64-6.1-19-14.35Zm67.82,1.65c0,2.47,0,3.46-1.17,5.61-3.16,5.77-12.64,8.58-18.47,8.58-6.33,0-12.15-2-12.15-7.92,0-7.59,9.15-9.24,16-10.73,7.65-1.65,10.65-2.14,15.81-3.13v7.59Zm-.16,32.16h23.79V418.21c0-17.32-11.32-34.48-37.78-34.48-24,0-36.12,14-39.28,24.08L218,412.28c2-3.8,7.48-7.76,15.3-7.76,9.49,0,15.16,4.94,15.16,10.06-5,.66-24.8,4-30,4.95-15.14,3-26.8,11.38-26.8,27.38,0,14.52,12.82,25.74,29.47,25.74,11.48,0,19.3-4,26.12-10.73h1.18v8.74Zm93.42-50.6,31.43-33.85H342.55l-27.13,28.53V353.85H291v117h24.47V448.72l9.15-9.89.16-.17,31.6,52.08h29L341.9,420.06Zm70,53.08a72.1,72.1,0,0,0,21.17-3.3V449.22a60.72,60.72,0,0,1-13.68,1.65c-8,0-11.48-5.28-11.48-13.2V406.5h23.66v-20H408V365.16H383.48v79.61c0,17,12,28.37,28.46,28.37Zm95.83-45.32c0,14.31-9.13,23.36-20.91,23.36S466,442.13,466,427.82c0-14.15,9.95-22.7,20.91-22.7s20.91,8.55,20.91,22.7Zm23.74,0c0-24.68-19.59-44.09-44.65-44.09-24.9,0-44.65,19.41-44.65,44.09,0,28.12,21.75,44.91,44.65,44.91,23.07,0,44.65-16.79,44.65-44.91Zm64-18.92V383.73c-12,0-22.57,7.4-25.73,12.34V386.2H545.39v84.22h24.39V429.63c0-13.82,10.46-20.73,25.73-20.73Zm0,0"/></clipPath><clipPath id="clip-path-3"><path class="cls-3" d="M-3,351.89H597v140H-3Zm0,0"/></clipPath><clipPath id="clip-path-4" transform="translate(7 -347.89)"><rect class="cls-4" x="-3" y="-300.11" width="612" height="792"/></clipPath></defs><title>reaktor_logo_epsBLACK</title><g class="cls-5"><rect width="607.51" height="147.85"/></g></svg>