<svg xmlns:xlink="http://www.w3.org/1999/xlink" xmlns="http://www.w3.org/2000/svg" viewBox="0 0 550 119" width="550"  height="119" > <g fill="#FFFFFF"> <path d="M109.23,37H91.77v82.36H17.61V37H0V0H109.23Z" fill="#FFFFFF"></path> <path d="M230.05,119.37h-47.3V94.16h-17.9v25.21H117.39V0h47.46V25.22h17.9V0h47.3Z" fill="#FFFFFF"></path> <path d="M351,119.37H303.57V94.13h-17.9v25.24H238.22V0h94.45C344.16,0,351,6,351,18.35v29.7c0,11.64-5.52,14.41-13.28,16.35v4.3c7.47.9,13.28,7.91,13.28,15.67ZM303.57,49.54V30.59h-17.9v19Z" fill="#FFFFFF"></path> <path d="M507.53.1h42.63v74l-31.45,45.34H473.44L441.52,74.15V.11h42.63L495.76,26.4Q501.64,13.25,507.53.1Z" fill="#FFFFFF"></path> <g fill="#FFFFFF"> <rect x="359.19" y="49.36" width="74.16" height="70.02" fill="#FFFFFF"></rect> <rect x="359.19" width="74.16" height="41.2" fill="#FFFFFF"></rect> </g> </g> </svg>