<?xml version="1.0" encoding="utf-8"?>
<!DOCTYPE svg PUBLIC "-//W3C//DTD SVG 1.1//EN" "http://www.w3.org/Graphics/SVG/1.1/DTD/svg11.dtd">
<svg version="1.1" id="Layer_1" xmlns="http://www.w3.org/2000/svg" xmlns:xlink="http://www.w3.org/1999/xlink" x="0px" y="0px"
	 width="421.583px" height="116.93px" viewBox="0 0 421.583 116.93" enable-background="new 0 0 421.583 116.93"
	 xml:space="preserve">
<g>
	<g>
		<path fill="none" d="M0.398,116.93c0-38.844,0-77.688,0-116.532c140.395,0,280.79,0,421.186,0c0,38.844,0,77.688,0,116.532
			C281.188,116.93,140.793,116.93,0.398,116.93z M145.365,16.31c0,28.348,0,56.291,0,84.271c7.004,0,13.869,0,20.918,0
			c0-12.122,0-24.142,0-36.659c15.87,13.9,31.39,27.493,47.076,41.232c0-29.482,0-58.542,0-87.581c-7.015,0-13.873,0-20.966,0
			c0,13.726,0,27.317,0,41.298C176.573,44.553,161.076,30.528,145.365,16.31z M301.552,80.82
			c-6.061-3.683-12.032-7.311-18.002-10.938c-7.798,12.758-22.664,14.219-32.387,6.744c-9.621-7.396-11.347-21.747-3.814-31.438
			c7.194-9.255,22.8-12.65,33.989-0.512c5.089-4.673,10.178-9.347,15.259-14.014c-10.702-12.407-29.746-18.315-47.544-11.508
			c-17.639,6.746-28.72,24.153-27.457,42.972c1.252,18.648,14.892,34.385,33.496,38.648
			C273.101,104.901,292.478,96.657,301.552,80.82z M63.023,101.978c14.889-28.245,29.65-56.247,44.566-84.541c-1,0-1.642,0-2.284,0
			c-6.494,0-12.989,0.045-19.482-0.035c-1.448-0.018-2.204,0.392-2.87,1.735c-6.266,12.623-12.617,25.203-18.947,37.793
			c-0.303,0.603-0.646,1.186-1.079,1.978c-0.434-0.818-0.75-1.388-1.042-1.97C55.557,44.348,49.21,31.766,42.938,19.146
			c-0.656-1.318-1.394-1.768-2.862-1.748c-6.493,0.089-12.988,0.036-19.481,0.043c-0.63,0-1.261,0.061-2.253,0.111
			C33.287,45.792,48.093,73.768,63.023,101.978z M382.311,100.604c0-20.962,0-41.722,0-62.7c7.083,0,13.943,0,20.818,0
			c0-6.89,0-13.561,0-20.348c-20.998,0-41.896,0-62.897,0c0,6.802,0,13.516,0,20.447c6.975,0,13.833,0,20.907,0
			c0,20.984,0,41.752,0,62.601C368.223,100.604,375.09,100.604,382.311,100.604z M310.458,100.533c7.1,0,14.014,0,20.95,0
			c0-27.75,0-55.348,0-82.942c-7.046,0-13.96,0-20.95,0C310.458,45.287,310.458,72.83,310.458,100.533z M133.641,17.596
			c-7.09,0-13.993,0-20.902,0c0,27.745,0,55.33,0,82.935c7.033,0,13.941,0,20.902,0C133.641,72.836,133.641,45.296,133.641,17.596z
			 M285.793,63.794c6.987-0.346,10.983-4.073,11.768-10.719c0.518-4.384,0.44-4.488-3.97-4.087
			c-2.989,0.271-5.969,0.628-9.194,0.973C286.263,54.62,286.658,59.149,285.793,63.794z M275.269,51.583
			c-0.022-1.593-1.165-2.728-2.738-2.72c-1.516,0.007-2.792,1.243-2.806,2.714c-0.015,1.595,1.318,2.912,2.882,2.848
			C274.125,54.362,275.291,53.117,275.269,51.583z"/>
		<path fill-rule="evenodd" clip-rule="evenodd" fill="#EE5031" d="M145.365,16.31c15.711,14.218,31.208,28.243,47.028,42.561
			c0-13.98,0-27.572,0-41.298c7.093,0,13.952,0,20.966,0c0,29.04,0,58.099,0,87.581c-15.686-13.739-31.206-27.333-47.076-41.232
			c0,12.517,0,24.537,0,36.659c-7.049,0-13.915,0-20.918,0C145.365,72.601,145.365,44.658,145.365,16.31z"/>
		<path fill-rule="evenodd" clip-rule="evenodd" fill="#EE5031" d="M301.552,80.82c-9.075,15.837-28.452,24.081-46.46,19.955
			c-18.604-4.263-32.243-20-33.496-38.648c-1.263-18.819,9.818-36.226,27.457-42.972c17.798-6.807,36.842-0.898,47.544,11.508
			c-5.082,4.667-10.17,9.34-15.259,14.014c-11.189-12.138-26.795-8.743-33.989,0.512c-7.532,9.691-5.806,24.042,3.814,31.438
			c9.723,7.475,24.588,6.014,32.387-6.744C289.521,73.51,295.491,77.138,301.552,80.82z"/>
		<path fill-rule="evenodd" clip-rule="evenodd" fill="#EE5031" d="M63.023,101.978c-14.93-28.21-29.737-56.186-44.682-84.425
			c0.992-0.05,1.623-0.11,2.253-0.111c6.494-0.007,12.989,0.046,19.481-0.043c1.469-0.02,2.207,0.429,2.862,1.748
			c6.272,12.619,12.619,25.201,18.946,37.792c0.292,0.582,0.609,1.152,1.042,1.97c0.433-0.792,0.776-1.375,1.079-1.978
			c6.331-12.59,12.682-25.17,18.947-37.793c0.667-1.343,1.422-1.753,2.87-1.735c6.493,0.08,12.988,0.035,19.482,0.035
			c0.642,0,1.284,0,2.284,0C92.674,45.731,77.913,73.733,63.023,101.978z"/>
		<path fill-rule="evenodd" clip-rule="evenodd" fill="#EE5031" d="M382.311,100.604c-7.221,0-14.087,0-21.172,0
			c0-20.849,0-41.617,0-62.601c-7.074,0-13.933,0-20.907,0c0-6.931,0-13.646,0-20.447c21.001,0,41.9,0,62.897,0
			c0,6.788,0,13.458,0,20.348c-6.875,0-13.735,0-20.818,0C382.311,58.881,382.311,79.642,382.311,100.604z"/>
		<path fill-rule="evenodd" clip-rule="evenodd" fill="#EE5031" d="M310.458,100.533c0-27.703,0-55.246,0-82.942
			c6.99,0,13.904,0,20.95,0c0,27.594,0,55.192,0,82.942C324.472,100.533,317.558,100.533,310.458,100.533z"/>
		<path fill-rule="evenodd" clip-rule="evenodd" fill="#EE5031" d="M133.641,17.596c0,27.7,0,55.24,0,82.935
			c-6.961,0-13.869,0-20.902,0c0-27.605,0-55.19,0-82.935C119.648,17.596,126.551,17.596,133.641,17.596z"/>
		<path fill-rule="evenodd" clip-rule="evenodd" fill="#EE5031" d="M285.793,63.794c0.865-4.645,0.47-9.175-1.396-13.833
			c3.225-0.345,6.206-0.702,9.194-0.973c4.41-0.4,4.488-0.296,3.97,4.087C296.776,59.722,292.78,63.449,285.793,63.794z"/>
		<path fill-rule="evenodd" clip-rule="evenodd" fill="#EE5031" d="M275.269,51.583c0.021,1.534-1.145,2.779-2.662,2.842
			c-1.564,0.064-2.897-1.253-2.882-2.848c0.014-1.471,1.291-2.707,2.806-2.714C274.104,48.855,275.247,49.99,275.269,51.583z"/>
	</g>
</g>
</svg>
