<?xml version="1.0" encoding="utf-8"?>
<!-- Generator: Adobe Illustrator 16.0.0, SVG Export Plug-In . SVG Version: 6.00 Build 0)  -->
<!DOCTYPE svg PUBLIC "-//W3C//DTD SVG 1.1//EN" "http://www.w3.org/Graphics/SVG/1.1/DTD/svg11.dtd">
<svg version="1.1" id="Layer_1" xmlns="http://www.w3.org/2000/svg" xmlns:xlink="http://www.w3.org/1999/xlink" x="0px" y="0px"
	 width="564.516px" height="144.015px" viewBox="0 0 564.516 144.015" enable-background="new 0 0 564.516 144.015"
	 xml:space="preserve">
<g>
	<g>
		<path fill="none" d="M0.518,144.015c0-48,0-96,0-144c188,0,375.999,0,563.998,0c0,48,0,96,0,144
			C376.517,144.015,188.517,144.015,0.518,144.015z M170.41,89.098c-5.789,0-11.576,0-17.335,0
			c-13.129,33.898-44.328,39.329-63.667,32.183c-20.824-7.696-34.999-30.85-32.125-49.954c4.273,0,8.57,0,13.277,0
			c6.439,13.432,12.922,26.955,19.696,41.084c5.675-8.121,10.868-15.553,16.406-23.479c5.634,8.078,10.839,15.542,16.405,23.522
			c7.062-14.141,13.861-27.755,20.761-41.572c9.785,0,19.215,0,28.603,0c1.423-28.205-22.279-58.867-50.827-66.642
			c-28.27-7.699-66.946,6.625-80.688,49.024c-8.801,0-17.75,0-26.695,0c-3.682,5.916-7.167,11.516-11.154,17.92
			c12.275,0,23.651,0,35.003,0c0.669,47.108,38.562,74.361,72.533,71.711C139.475,140.642,169.852,113.62,170.41,89.098z
			 M259.489,71.772c-0.408-0.107-0.815-0.215-1.224-0.322c1.341-12.169,2.681-24.338,4.054-36.805c-6.729,0-13.001,0-19.508,0
			c-6.877,12.366-13.766,24.752-20.655,37.138c-0.363-0.13-0.727-0.26-1.09-0.389c1.082-12.154,2.165-24.309,3.272-36.751
			c-7.768,0-15.025,0-22.703,0c-1.767,24.813-3.519,49.407-5.285,74.216c7.414,0,14.041,0,20.853,0
			c6.868-11.836,13.745-23.686,20.622-35.535c0.28,0.122,0.561,0.243,0.842,0.365c-1.295,11.639-2.59,23.277-3.911,35.146
			c7.011,0,13.457,0,20.112,0c15.029-24.497,30.031-48.948,45.456-74.09c-6.852,0-12.746,0-19.083,0
			C274.063,46.963,266.776,59.368,259.489,71.772z M363.039,103.98c6.062,6.856,11.586,7.994,19.699,4.246
			c2.099-0.97,4.202-2.091,6.002-3.522c10.647-8.476,16.966-19.554,18.521-33.034c1.547-13.408-8.831-21.622-21.651-17.388
			c-2.154,0.711-4.02,2.286-6.04,3.421c-0.399,0.225-0.902,0.265-1.593,0.456c0-1.407,0-2.645,0-3.854c-6.813,0-13.415,0-20.018,0
			c-8.021,23.992-15.952,47.72-24.066,71.994c7.67,0,14.531,0,21.616,0C358,118.916,360.438,111.689,363.039,103.98z
			 M322.833,71.442c-8.322,1.571-16.263,2.599-23.935,4.636c-9.861,2.619-17.368,8.348-19.966,18.873
			c-2.216,8.977,2.134,14.697,11.302,15.213c7.646,0.43,14.804-1.16,21.68-5.396c0.337,1.612,0.588,2.812,0.838,4.012
			c6.992,0,13.761,0,20.226,0c2.068-5.953,4.175-11.555,5.957-17.257c2.175-6.961,4.515-13.917,5.998-21.037
			c2.194-10.535-2.867-16.861-13.509-17.462c-4.954-0.28-9.971-0.378-14.902,0.072c-8.061,0.734-15.854,2.752-21.645,8.902
			c-2.176,2.309-3.445,5.47-5.6,9.018c7.556,0,13.527,0,19.501-0.008c5.844-5.005,12.054-6.243,14.781-2.486
			C323.34,69.401,323.044,70.593,322.833,71.442z M556.02,86.774c8.872-15.532,3.263-30.372-12.033-33.525
			c-20.422-4.21-44.371,12.68-47.196,33.285c-1.675,12.211,3.735,20.922,15.271,22.973c14.239,2.531,27.182-0.522,37.478-11.396
			c2.069-2.186,3.62-4.862,5.924-8.016c-7.881-0.385-14.487-0.707-20.698-1.011c-5.439,5.596-9.792,7.282-12.855,4.995
			c-2.436-1.818-2.919-4.251-1.196-7.306C532.437,86.774,544.226,86.774,556.02,86.774z M498.12,75.698
			c1.665-13.186-3.803-21.478-14.43-22.715c-24.37-2.837-45.098,16.168-44.324,40.643c0.268,8.48,4.723,14.415,13.061,15.914
			c10.095,1.813,19.963,0.777,28.764-5.151c6.025-4.059,9.996-9.563,11.44-17.197c-6.087-0.482-11.84-0.938-17.341-1.374
			c-2.981,4.787-5.263,9.671-12.193,8.97c-3.199-7.806-0.062-14.432,3.543-20.762c2.044-3.59,4.889-6.827,10.501-5.643
			c0.331,2.509,0.662,5.024,0.965,7.315C484.891,75.698,491.344,75.698,498.12,75.698z M421.193,54.247
			c-6.26,18.155-12.473,36.174-18.808,54.546c7.929,0,15.362,0,23.198,0c5.951-18.006,11.932-36.103,18.028-54.546
			C436.059,54.247,428.959,54.247,421.193,54.247z M421.553,51.4c8.16,0,15.547,0,23.312,0c1.717-5.563,3.385-10.971,5.172-16.764
			c-8.234,0-15.615,0-23.152,0C425.126,40.164,423.438,45.476,421.553,51.4z"/>
		<path fill-rule="evenodd" clip-rule="evenodd" fill="#1B7AC0" d="M170.41,89.098c-0.559,24.521-30.935,51.544-59.807,53.798
			c-33.97,2.65-71.864-24.603-72.533-71.711c-11.352,0-22.728,0-35.003,0c3.987-6.404,7.472-12.004,11.154-17.92
			c8.944,0,17.894,0,26.695,0c13.742-42.4,52.418-56.724,80.688-49.024c28.547,7.775,52.25,38.437,50.827,66.642
			c-9.388,0-18.817,0-28.603,0c-6.9,13.817-13.699,27.432-20.761,41.572c-5.566-7.98-10.771-15.444-16.405-23.522
			c-5.539,7.926-10.731,15.357-16.406,23.479C83.482,98.282,76.999,84.759,70.56,71.327c-4.707,0-9.004,0-13.277,0
			c-2.874,19.104,11.302,42.258,32.125,49.954c19.339,7.146,50.538,1.716,63.667-32.183
			C158.834,89.098,164.621,89.098,170.41,89.098z M106.63,53.199c5.492,8.595,10.576,16.55,16.147,25.271
			c3.394-9.221,6.311-17.145,9.38-25.484c5.883,0,11.601,0,17.458,0c-5.141-16.479-26.453-30.481-44.912-29.938
			c-18.741,0.551-38.97,14.53-42.979,30.027c6.862,0,13.63,0,20.598,0c2.626,8.276,5.157,16.253,8.05,25.371
			C96.099,69.554,101.168,61.681,106.63,53.199z"/>
		<path fill-rule="evenodd" clip-rule="evenodd" fill="#1E7BC0" d="M259.489,71.772c7.287-12.404,14.574-24.809,21.752-37.027
			c6.337,0,12.231,0,19.083,0c-15.425,25.142-30.427,49.593-45.456,74.09c-6.655,0-13.101,0-20.112,0
			c1.321-11.868,2.616-23.507,3.911-35.146c-0.281-0.122-0.562-0.243-0.842-0.365c-6.877,11.85-13.754,23.699-20.622,35.535
			c-6.812,0-13.438,0-20.853,0c1.767-24.809,3.518-49.402,5.285-74.216c7.678,0,14.936,0,22.703,0
			c-1.108,12.442-2.19,24.597-3.272,36.751c0.363,0.129,0.727,0.259,1.09,0.389c6.889-12.386,13.777-24.771,20.655-37.138
			c6.507,0,12.779,0,19.508,0c-1.373,12.466-2.713,24.636-4.054,36.805C258.674,71.557,259.081,71.665,259.489,71.772z"/>
		<path fill-rule="evenodd" clip-rule="evenodd" fill="#1D7BC0" d="M363.039,103.98c-2.601,7.709-5.039,14.936-7.53,22.318
			c-7.085,0-13.946,0-21.616,0c8.114-24.273,16.046-48.002,24.066-71.994c6.603,0,13.204,0,20.018,0c0,1.208,0,2.447,0,3.854
			c0.69-0.19,1.193-0.231,1.593-0.456c2.021-1.136,3.886-2.71,6.04-3.421c12.82-4.233,23.198,3.98,21.651,17.388
			c-1.555,13.48-7.873,24.559-18.521,33.034c-1.8,1.432-3.903,2.553-6.002,3.522C374.625,111.974,369.101,110.836,363.039,103.98z
			 M382.534,69.209c-4.557-0.244-6.266,0.604-8.954,5.713c-3.268,6.207-6.801,12.536-3.588,19.926
			C377.737,94.413,385.531,78.142,382.534,69.209z"/>
		<path fill-rule="evenodd" clip-rule="evenodd" fill="#1B7AC0" d="M322.833,71.442c0.211-0.849,0.507-2.041,0.727-2.922
			c-2.728-3.757-8.938-2.519-14.781,2.49c-5.974,0.004-11.945,0.004-19.501,0.004c2.154-3.548,3.424-6.709,5.6-9.018
			c5.79-6.149,13.584-8.167,21.645-8.902c4.932-0.45,9.948-0.352,14.902-0.072c10.642,0.602,15.703,6.927,13.509,17.462
			c-1.483,7.121-3.823,14.076-5.998,21.037c-1.782,5.702-3.889,11.304-5.957,17.257c-6.465,0-13.233,0-20.226,0
			c-0.25-1.199-0.501-2.399-0.838-4.012c-6.876,4.236-14.034,5.826-21.68,5.396c-9.168-0.516-13.518-6.236-11.302-15.213
			c2.598-10.525,10.104-16.254,19.966-18.873C306.57,74.041,314.511,73.013,322.833,71.442z M304.345,95.804
			c8.341,0.628,12.973-3.462,13.362-11.515C306.338,85.602,301.606,89.552,304.345,95.804z"/>
		<path fill-rule="evenodd" clip-rule="evenodd" fill="#1F7BC0" d="M556.02,86.774c-11.794,0-23.583,0-35.307,0
			c-1.723,3.055-1.239,5.487,1.196,7.306c3.063,2.287,7.416,0.601,12.855-4.995c6.211,0.304,12.817,0.626,20.698,1.011
			c-2.304,3.153-3.854,5.83-5.924,8.016c-10.296,10.873-23.238,13.927-37.478,11.396c-11.536-2.051-16.946-10.762-15.271-22.973
			c2.825-20.604,26.774-37.495,47.196-33.285C559.282,56.402,564.892,71.242,556.02,86.774z M524.664,73.775
			c4.81,0,9.199,0,13.622,0c0.693-3.178,0.703-5.891-2.682-7.188C532.148,65.261,527.621,68.155,524.664,73.775z"/>
		<path fill-rule="evenodd" clip-rule="evenodd" fill="#1D7BC0" d="M498.12,75.698c-6.776,0-13.229,0-20.015,0
			c-0.303-2.291-0.634-4.807-0.965-7.315c-5.612-1.185-8.457,2.053-10.501,5.643c-3.605,6.33-6.742,12.956-3.543,20.762
			c6.931,0.701,9.212-4.183,12.193-8.97c5.501,0.437,11.254,0.892,17.341,1.374c-1.444,7.634-5.415,13.139-11.44,17.197
			c-8.801,5.929-18.669,6.965-28.764,5.151c-8.338-1.499-12.793-7.434-13.061-15.914c-0.773-24.475,19.954-43.48,44.324-40.643
			C494.317,54.22,499.785,62.512,498.12,75.698z"/>
		<path fill-rule="evenodd" clip-rule="evenodd" fill="#197ABF" d="M421.193,54.247c7.766,0,14.865,0,22.419,0
			c-6.097,18.444-12.077,36.541-18.028,54.546c-7.836,0-15.27,0-23.198,0C408.721,90.421,414.934,72.402,421.193,54.247z"/>
		<path fill-rule="evenodd" clip-rule="evenodd" fill="#2F7FC2" d="M421.553,51.4c1.885-5.925,3.573-11.236,5.332-16.764
			c7.537,0,14.918,0,23.152,0c-1.787,5.793-3.455,11.201-5.172,16.764C437.1,51.4,429.713,51.4,421.553,51.4z"/>
		<path fill-rule="evenodd" clip-rule="evenodd" fill="none" d="M106.63,53.199c-5.462,8.482-10.532,16.355-16.258,25.246
			c-2.893-9.118-5.424-17.095-8.05-25.371c-6.967,0-13.736,0-20.598,0c4.009-15.498,24.238-29.476,42.979-30.027
			c18.459-0.543,39.771,13.459,44.912,29.938c-5.857,0-11.575,0-17.458,0c-3.07,8.339-5.986,16.263-9.38,25.484
			C117.206,69.75,112.123,61.794,106.63,53.199z"/>
		<path fill-rule="evenodd" clip-rule="evenodd" fill="none" d="M382.534,69.209c2.997,8.933-4.797,25.203-12.542,25.639
			c-3.213-7.39,0.32-13.719,3.588-19.926C376.269,69.814,377.978,68.965,382.534,69.209z"/>
		<path fill-rule="evenodd" clip-rule="evenodd" fill="none" d="M304.345,95.804c-2.738-6.252,1.993-10.202,13.362-11.515
			C317.317,92.342,312.686,96.432,304.345,95.804z"/>
		<path fill-rule="evenodd" clip-rule="evenodd" fill="none" d="M524.664,73.775c2.957-5.62,7.484-8.514,10.94-7.188
			c3.385,1.298,3.375,4.011,2.682,7.188C533.863,73.775,529.474,73.775,524.664,73.775z"/>
	</g>
</g>
</svg>
