<svg id="svg" version="1.1" width="400" height="51.1520737327189" viewBox="0 0 400 51.1520737327189" xmlns="http://www.w3.org/2000/svg" xmlns:xlink="http://www.w3.org/1999/xlink" ><g id="svgg"><path id="path0" d="M318.667 1.440 C 318.438 1.484,317.344 1.665,316.237 1.843 C 307.625 3.228,300.426 9.225,297.747 17.245 C 295.060 25.287,295.866 32.726,300.215 40.037 C 300.955 41.281,304.359 44.882,305.271 45.384 C 305.469 45.494,305.978 45.831,306.401 46.134 C 313.176 50.987,325.510 51.636,334.000 47.587 C 335.603 46.822,336.001 46.597,336.801 46.000 C 337.231 45.679,337.771 45.319,338.000 45.200 C 339.924 44.201,344.309 38.603,345.075 36.167 C 345.205 35.754,345.539 34.762,345.816 33.962 C 347.812 28.217,347.445 20.638,344.868 14.417 C 343.736 11.683,339.562 6.603,337.833 5.855 C 337.696 5.796,337.030 5.381,336.353 4.934 C 335.676 4.487,334.776 3.987,334.353 3.823 C 333.930 3.659,332.922 3.254,332.115 2.924 C 330.634 2.318,330.309 2.232,327.583 1.732 C 326.127 1.465,319.652 1.253,318.667 1.440 M391.190 1.744 C 387.255 3.206,385.839 7.961,388.254 11.601 C 390.977 15.702,397.582 15.018,399.688 10.417 C 400.916 7.732,399.052 2.514,396.665 1.957 C 396.437 1.904,395.950 1.745,395.583 1.604 C 394.538 1.203,392.471 1.268,391.190 1.744 M91.500 2.173 C 89.419 2.320,85.416 2.776,84.709 2.946 L 84.335 3.036 84.292 25.680 L 84.250 48.325 83.611 46.787 C 83.259 45.942,82.687 44.462,82.338 43.500 C 81.990 42.537,81.402 41.000,81.033 40.083 C 79.310 35.805,78.626 34.044,78.508 33.583 C 78.437 33.308,77.984 32.146,77.501 31.000 C 77.018 29.854,76.550 28.654,76.461 28.333 C 76.372 28.012,75.894 26.783,75.399 25.601 C 74.905 24.419,74.500 23.375,74.500 23.282 C 74.500 23.066,72.997 19.309,72.818 19.077 C 72.744 18.981,72.613 18.606,72.526 18.243 C 72.438 17.880,71.992 16.646,71.533 15.500 C 69.743 11.028,69.091 9.360,68.570 7.917 C 68.271 7.092,67.757 5.779,67.427 5.000 C 67.096 4.221,66.750 3.302,66.656 2.958 L 66.487 2.333 62.162 2.333 L 57.838 2.333 57.611 2.876 C 57.486 3.175,57.288 3.718,57.170 4.084 C 57.053 4.450,56.584 5.667,56.129 6.788 C 55.675 7.910,55.206 9.147,55.088 9.538 C 54.969 9.930,54.493 11.157,54.029 12.266 C 53.565 13.375,53.132 14.500,53.066 14.766 C 53.000 15.032,52.545 16.216,52.056 17.396 C 51.567 18.576,51.167 19.629,51.167 19.736 C 51.167 19.842,50.793 20.813,50.336 21.893 C 49.880 22.973,49.401 24.208,49.273 24.637 C 49.145 25.066,48.665 26.317,48.207 27.417 C 47.749 28.517,47.322 29.604,47.259 29.833 C 47.150 30.227,46.274 32.487,44.325 37.409 C 43.854 38.596,43.334 39.984,43.167 40.492 C 43.001 41.001,42.562 42.139,42.191 43.022 C 41.820 43.904,41.356 45.104,41.160 45.688 C 40.838 46.646,40.614 47.209,40.041 48.500 C 39.904 48.808,39.853 42.830,39.845 25.625 L 39.833 2.333 36.250 2.333 L 32.667 2.333 32.667 12.250 L 32.667 22.167 19.833 22.167 L 7.000 22.167 7.000 12.250 L 7.000 2.333 3.500 2.333 L 0.000 2.333 0.000 26.083 L 0.000 49.833 3.500 49.833 L 7.000 49.833 7.000 38.833 L 7.000 27.833 19.833 27.833 L 32.667 27.833 32.667 38.835 L 32.667 49.837 39.850 49.793 L 47.034 49.750 47.855 47.750 C 48.307 46.650,48.778 45.409,48.902 44.992 C 49.027 44.575,49.550 43.182,50.064 41.895 C 50.579 40.609,51.000 39.484,51.000 39.394 C 51.000 39.237,51.895 36.907,52.448 35.625 L 52.717 35.000 61.997 35.000 L 71.276 35.000 71.947 36.708 C 72.316 37.648,73.068 39.579,73.618 41.000 C 74.168 42.421,75.018 44.596,75.507 45.833 C 75.996 47.071,76.521 48.458,76.673 48.917 L 76.951 49.750 84.225 49.793 L 91.500 49.837 91.500 40.401 C 91.500 31.490,91.516 30.971,91.791 31.076 C 92.494 31.346,96.839 31.496,99.167 31.332 C 101.251 31.185,102.487 30.981,106.250 30.167 C 109.988 29.357,114.377 26.039,116.059 22.750 C 118.329 18.311,118.202 13.766,115.677 9.000 C 112.953 3.861,103.871 1.297,91.500 2.173 M125.833 2.185 C 123.700 2.326,119.742 2.766,119.052 2.939 L 118.667 3.036 118.667 26.435 L 118.667 49.833 122.250 49.833 L 125.833 49.833 125.833 40.442 L 125.833 31.050 126.708 31.201 C 133.188 32.325,143.897 30.022,146.961 26.847 C 147.120 26.683,147.461 26.413,147.718 26.248 C 148.225 25.924,149.683 24.042,150.364 22.833 C 151.720 20.425,152.239 15.857,151.492 12.917 C 151.305 12.183,151.089 11.342,151.012 11.046 C 150.709 9.896,148.998 7.474,147.764 6.450 C 143.363 2.800,136.562 1.477,125.833 2.185 M251.667 25.750 L 251.667 49.500 255.250 49.500 L 258.833 49.500 258.829 35.625 C 258.826 23.186,258.737 18.158,258.413 12.000 L 258.313 10.083 258.895 11.137 C 259.528 12.284,260.367 13.632,261.816 15.833 C 262.328 16.612,262.824 17.413,262.916 17.612 C 263.008 17.812,263.481 18.524,263.967 19.196 C 265.087 20.745,266.533 22.798,266.750 23.147 C 266.842 23.295,267.259 23.866,267.678 24.416 C 268.097 24.966,269.104 26.354,269.917 27.500 C 270.730 28.646,271.560 29.771,271.763 30.000 C 271.966 30.229,272.346 30.726,272.607 31.104 C 274.041 33.176,275.861 35.649,276.092 35.841 C 276.238 35.962,276.496 36.329,276.664 36.656 C 276.833 36.982,277.112 37.400,277.284 37.583 C 277.581 37.900,279.273 40.199,280.782 42.337 C 281.166 42.881,281.642 43.497,281.838 43.705 C 282.034 43.913,282.308 44.299,282.446 44.563 C 282.584 44.826,283.016 45.434,283.407 45.913 C 283.797 46.393,284.388 47.190,284.719 47.684 C 285.050 48.179,285.501 48.790,285.722 49.042 L 286.122 49.500 289.895 49.500 L 293.668 49.500 293.626 25.792 L 293.583 2.083 290.042 2.038 L 286.500 1.993 286.502 15.705 C 286.503 29.935,286.752 38.039,287.264 40.500 C 287.370 41.011,286.611 39.981,286.323 39.223 C 286.116 38.680,284.671 36.318,283.311 34.300 C 282.773 33.503,282.333 32.813,282.333 32.767 C 282.333 32.720,281.977 32.185,281.542 31.578 C 281.106 30.970,280.547 30.144,280.299 29.741 C 280.052 29.339,279.564 28.640,279.216 28.188 C 278.868 27.736,278.058 26.633,277.417 25.738 C 276.775 24.842,275.944 23.725,275.569 23.257 C 275.195 22.789,274.746 22.183,274.571 21.911 C 274.397 21.639,273.950 21.040,273.580 20.580 C 273.209 20.119,272.505 19.163,272.015 18.455 C 271.526 17.746,271.064 17.167,270.990 17.167 C 270.916 17.167,270.808 17.018,270.751 16.835 C 270.693 16.653,270.181 15.907,269.614 15.177 C 267.954 13.042,266.782 11.473,266.308 10.754 C 266.065 10.385,265.628 9.821,265.337 9.500 C 265.047 9.179,264.758 8.796,264.696 8.650 C 264.634 8.503,264.380 8.128,264.133 7.816 C 263.519 7.045,261.123 3.841,260.917 3.515 C 260.825 3.370,260.537 2.970,260.278 2.626 L 259.805 2.000 255.736 2.000 L 251.667 2.000 251.667 25.750 M341.500 4.750 L 341.500 7.500 349.917 7.500 L 358.333 7.500 358.333 28.500 L 358.333 49.500 362.083 49.500 L 365.833 49.500 365.833 28.500 L 365.833 7.500 374.250 7.500 L 382.667 7.500 382.667 4.750 L 382.667 2.000 362.083 2.000 L 341.500 2.000 341.500 4.750 M147.253 2.495 C 147.198 2.584,147.598 3.352,148.142 4.203 C 149.911 6.970,152.266 10.723,152.877 11.750 C 152.986 11.933,153.460 12.683,153.929 13.417 C 154.399 14.150,154.879 14.938,154.996 15.167 C 155.113 15.396,155.600 16.183,156.078 16.917 C 157.277 18.755,158.503 20.712,159.000 21.583 C 159.536 22.523,160.806 24.550,161.940 26.276 C 162.431 27.023,162.833 27.677,162.833 27.727 C 162.833 27.778,163.133 28.292,163.498 28.868 L 164.163 29.917 164.165 39.875 L 164.167 49.833 167.750 49.833 L 171.333 49.833 171.333 39.891 L 171.333 29.949 172.352 28.350 C 172.913 27.470,173.510 26.598,173.680 26.412 C 173.850 26.226,174.160 25.764,174.369 25.384 C 174.579 25.005,175.144 24.123,175.625 23.426 C 176.106 22.728,176.500 22.103,176.501 22.037 C 176.501 21.971,176.815 21.504,177.199 21.000 C 177.582 20.496,178.051 19.819,178.240 19.496 C 178.429 19.172,178.940 18.385,179.376 17.746 C 181.037 15.311,184.333 10.290,184.337 10.189 C 184.339 10.131,184.492 9.896,184.677 9.667 C 185.160 9.070,186.253 7.448,186.367 7.161 C 186.420 7.026,186.847 6.400,187.315 5.769 C 187.784 5.138,188.167 4.557,188.167 4.479 C 188.167 4.400,188.429 3.992,188.750 3.572 C 189.730 2.288,189.859 2.333,185.264 2.333 L 181.196 2.333 180.532 3.563 C 180.168 4.239,179.561 5.267,179.185 5.846 C 178.808 6.426,178.500 6.957,178.500 7.027 C 178.500 7.098,178.088 7.794,177.583 8.576 C 177.079 9.358,176.667 10.056,176.667 10.127 C 176.667 10.199,176.395 10.668,176.063 11.170 C 175.730 11.673,175.102 12.721,174.667 13.500 C 174.231 14.279,173.603 15.327,173.271 15.830 C 172.938 16.332,172.667 16.801,172.667 16.873 C 172.667 16.945,172.255 17.668,171.753 18.481 C 171.250 19.294,170.787 20.099,170.723 20.271 C 170.660 20.443,170.419 20.883,170.188 21.250 C 169.958 21.617,169.419 22.617,168.991 23.474 L 168.214 25.031 167.440 23.690 C 167.015 22.952,166.666 22.289,166.665 22.216 C 166.665 22.143,166.318 21.483,165.894 20.750 C 165.470 20.017,164.866 18.929,164.551 18.333 C 164.237 17.737,163.515 16.459,162.948 15.492 C 162.381 14.526,161.692 13.341,161.417 12.859 C 161.142 12.377,160.550 11.368,160.101 10.616 C 159.653 9.865,159.084 8.875,158.838 8.417 C 158.592 7.958,158.154 7.208,157.866 6.750 C 157.577 6.292,157.167 5.577,156.953 5.161 C 156.739 4.745,156.277 3.939,155.925 3.369 L 155.286 2.333 151.319 2.333 C 148.939 2.333,147.313 2.398,147.253 2.495 M395.815 3.154 C 399.727 5.166,399.653 10.602,395.687 12.532 C 392.454 14.106,388.409 11.440,388.431 7.750 C 388.452 4.118,392.631 1.517,395.815 3.154 M391.333 7.642 L 391.333 11.333 392.000 11.333 L 392.667 11.333 392.667 9.917 C 392.667 8.058,393.577 7.928,394.213 9.696 C 394.611 10.801,395.165 11.333,395.919 11.333 C 396.850 11.333,396.848 11.302,395.839 9.627 L 395.012 8.254 395.506 7.744 C 395.951 7.284,396.000 7.127,396.000 6.143 C 396.000 4.535,395.490 4.181,392.979 4.042 L 391.333 3.952 391.333 7.642 M394.405 5.762 C 395.059 6.416,394.476 7.333,393.407 7.333 L 392.667 7.333 392.667 6.417 L 392.667 5.500 393.405 5.500 C 393.854 5.500,394.246 5.603,394.405 5.762 M326.167 7.084 C 337.366 9.863,342.352 22.729,337.161 35.456 C 336.441 37.223,333.476 40.774,331.750 41.937 C 325.864 45.902,318.030 46.032,312.243 42.260 C 304.096 36.949,301.592 23.068,307.235 14.500 C 307.564 14.000,307.833 13.539,307.833 13.476 C 307.833 13.309,308.932 12.058,309.996 11.013 C 313.890 7.192,320.313 5.631,326.167 7.084 M99.949 7.338 C 107.672 7.959,111.335 12.014,110.083 18.558 C 109.793 20.072,109.874 19.889,108.792 21.500 C 106.306 25.204,99.946 27.015,92.958 26.009 L 91.500 25.799 91.500 16.728 C 91.500 9.621,91.545 7.640,91.708 7.581 C 91.881 7.519,95.228 7.285,97.283 7.191 C 97.576 7.178,98.776 7.244,99.949 7.338 M134.351 7.342 C 142.872 8.012,146.915 13.905,143.566 20.775 C 141.562 24.886,134.705 27.093,127.292 26.012 L 125.833 25.799 125.833 16.649 L 125.833 7.500 126.708 7.480 C 127.190 7.468,128.371 7.406,129.333 7.341 C 130.296 7.276,131.316 7.210,131.601 7.195 C 131.886 7.179,133.123 7.246,134.351 7.342 M63.506 13.333 C 64.420 16.075,65.167 18.138,66.041 20.333 C 68.178 25.701,69.303 28.650,69.619 29.708 C 69.701 29.983,69.259 30.000,61.963 30.000 L 54.219 30.000 54.665 28.708 C 54.910 27.998,55.507 26.404,55.993 25.167 C 58.787 18.048,60.570 13.264,60.744 12.417 C 60.801 12.142,61.088 11.115,61.382 10.136 L 61.917 8.354 62.392 9.886 C 62.653 10.728,63.154 12.279,63.506 13.333 " stroke="none" fill="#000000" fill-rule="evenodd"></path><path id="path1" d="M217.000 25.307 L 217.000 50.667 217.503 50.667 C 219.135 50.667,224.991 49.031,227.500 47.874 C 228.188 47.557,229.050 47.190,229.417 47.060 C 229.783 46.929,230.730 46.450,231.521 45.995 C 232.312 45.539,233.012 45.167,233.076 45.167 C 233.139 45.167,233.730 44.814,234.387 44.383 C 235.045 43.952,235.788 43.483,236.038 43.341 C 236.938 42.830,239.333 40.789,239.333 40.533 C 239.333 40.453,239.015 40.057,238.625 39.652 C 238.011 39.015,236.279 37.164,232.251 32.842 C 231.701 32.251,230.800 31.302,230.250 30.733 C 229.700 30.163,228.935 29.353,228.550 28.932 L 227.849 28.167 225.341 28.167 L 222.833 28.167 222.833 32.583 L 222.833 37.000 221.250 37.000 L 219.667 37.000 219.667 25.940 L 219.667 14.880 222.164 14.761 C 231.306 14.326,235.037 15.702,235.665 19.740 C 236.147 22.838,234.831 25.250,231.892 26.654 C 230.517 27.311,230.469 27.186,233.131 29.904 C 237.414 34.276,239.313 36.248,239.837 36.865 C 240.123 37.203,240.621 37.680,240.942 37.925 L 241.526 38.370 242.030 37.894 C 242.307 37.631,242.765 37.079,243.047 36.667 C 243.330 36.254,243.606 35.879,243.661 35.833 C 245.074 34.654,247.832 28.777,248.491 25.542 C 249.418 20.996,248.231 14.949,245.751 11.583 C 245.549 11.308,245.259 10.843,245.107 10.549 C 244.544 9.455,241.640 6.542,239.833 5.260 C 238.675 4.437,233.935 2.000,233.494 2.000 C 233.348 2.000,232.559 1.773,231.740 1.495 C 228.634 0.441,226.717 0.168,221.625 0.053 L 217.000 -0.052 217.000 25.307 M222.833 21.393 L 222.833 25.833 225.566 25.833 C 230.661 25.833,232.740 24.509,232.702 21.287 C 232.664 18.025,231.364 17.174,226.208 17.040 L 222.833 16.952 222.833 21.393 " stroke="none" fill="#ec1e23" fill-rule="evenodd"></path><path id="path2" d="M212.382 0.577 C 211.354 0.790,209.817 1.167,208.965 1.414 C 208.114 1.661,207.042 1.963,206.583 2.086 C 206.125 2.209,205.112 2.584,204.333 2.921 C 203.554 3.258,202.618 3.642,202.253 3.773 C 201.390 4.084,197.102 6.437,196.528 6.915 C 196.283 7.118,195.755 7.490,195.353 7.741 C 193.095 9.156,190.150 11.961,187.573 15.154 C 186.771 16.147,184.856 19.384,184.459 20.417 C 182.391 25.799,181.993 29.547,183.053 33.667 C 183.516 35.465,184.905 38.695,185.618 39.626 C 185.880 39.969,186.310 40.571,186.573 40.962 C 187.231 41.944,190.123 44.689,191.274 45.425 C 191.795 45.758,192.336 46.145,192.475 46.285 C 192.830 46.639,197.215 48.788,198.057 49.020 C 198.438 49.125,199.434 49.423,200.270 49.681 C 203.821 50.780,204.787 50.898,210.250 50.908 L 215.250 50.917 215.292 25.542 L 215.334 0.167 214.792 0.178 C 214.494 0.184,213.409 0.363,212.382 0.577 M205.529 14.932 C 207.200 15.456,209.492 16.920,210.144 17.880 C 211.281 19.556,211.668 20.278,211.978 21.306 C 214.690 30.294,209.854 37.548,201.167 37.521 C 193.020 37.496,188.528 31.503,190.073 22.721 C 191.222 16.198,198.256 12.653,205.529 14.932 M199.970 16.680 C 195.389 17.188,192.953 20.353,192.927 25.833 C 192.898 31.845,195.914 35.214,201.307 35.193 C 206.570 35.173,209.559 31.748,209.550 25.750 C 209.541 19.541,205.833 16.031,199.970 16.680 " stroke="none" fill="#6bbc44" fill-rule="evenodd"></path><path id="path3" d="" stroke="none" fill="#00ff00" fill-rule="evenodd"></path><path id="path4" d="" stroke="none" fill="#ffff00" fill-rule="evenodd"></path></g></svg>