<?xml version="1.0" encoding="utf-8"?>
<!-- Generator: Adobe Illustrator 16.0.0, SVG Export Plug-In . SVG Version: 6.00 Build 0)  -->
<!DOCTYPE svg PUBLIC "-//W3C//DTD SVG 1.1//EN" "http://www.w3.org/Graphics/SVG/1.1/DTD/svg11.dtd">
<svg version="1.1" id="Layer_1" xmlns="http://www.w3.org/2000/svg" xmlns:xlink="http://www.w3.org/1999/xlink" x="0px" y="0px"
	 width="435px" height="435px" viewBox="0 0 435 435" enable-background="new 0 0 435 435" xml:space="preserve">
<g>
	<defs>
		<circle id="SVGID_1_" cx="217.5" cy="217.5" r="217.5"/>
	</defs>
	<clipPath id="SVGID_2_">
		<use xlink:href="#SVGID_1_"  overflow="visible"/>
	</clipPath>
	<g clip-path="url(#SVGID_2_)">
		<defs>
			<rect id="SVGID_3_" width="435" height="435"/>
		</defs>
		<clipPath id="SVGID_4_">
			<use xlink:href="#SVGID_3_"  overflow="visible"/>
		</clipPath>
		<rect x="-5" y="-5" clip-path="url(#SVGID_4_)" fill="#5DB8D3" width="445" height="445"/>
	</g>
</g>
<g>
	<defs>
		<circle id="SVGID_5_" cx="218.5" cy="218.5" r="199.5"/>
	</defs>
	<clipPath id="SVGID_6_">
		<use xlink:href="#SVGID_5_"  overflow="visible"/>
	</clipPath>
	<g clip-path="url(#SVGID_6_)">
		<defs>
			<rect id="SVGID_7_" width="435" height="435"/>
		</defs>
		<clipPath id="SVGID_8_">
			<use xlink:href="#SVGID_7_"  overflow="visible"/>
		</clipPath>
		<rect x="14" y="14" clip-path="url(#SVGID_8_)" fill="#FFFFFF" width="409" height="409"/>
	</g>
</g>
<g>
	<defs>
		<circle id="SVGID_9_" cx="218" cy="218" r="188"/>
	</defs>
	<clipPath id="SVGID_10_">
		<use xlink:href="#SVGID_9_"  overflow="visible"/>
	</clipPath>
	<g clip-path="url(#SVGID_10_)">
		<defs>
			<rect id="SVGID_11_" width="435" height="435"/>
		</defs>
		<clipPath id="SVGID_12_">
			<use xlink:href="#SVGID_11_"  overflow="visible"/>
		</clipPath>
		<rect x="25" y="25" clip-path="url(#SVGID_12_)" fill="#5DB8D3" width="386" height="386"/>
	</g>
</g>
<g>
	<defs>
		<path id="SVGID_13_" d="M334.134,151.117l0.412,2.11h0.225l0.413-1.997l9.105-40.972h11.203l-15.25,54.88H329.15l-15.252-54.88
			h11.205L334.134,151.117z M308.914,141.053h-18.323v15.529h21.546v8.557h-32.226v-54.88h32.151v8.594h-21.472v13.645h18.323
			V141.053z M247.46,118.853v37.729h5.209c2.973,0,5.265-1.3,6.876-3.901c1.611-2.601,2.417-6.049,2.417-10.346v-9.311
			c0-4.271-0.806-7.701-2.417-10.289c-1.611-2.589-3.903-3.883-6.876-3.883H247.46z M236.78,165.139v-54.88h16.487
			c5.597,0,10.219,2.13,13.865,6.389c3.647,4.26,5.471,9.743,5.471,16.453v9.234c0,6.709-1.823,12.187-5.471,16.434
			c-3.646,4.246-8.269,6.37-13.865,6.37H236.78z M188.066,133.439h5.883c2.173-0.051,3.841-0.685,5.002-1.903
			s1.742-2.972,1.742-5.258c0-2.563-0.599-4.441-1.798-5.636c-1.199-1.193-3.01-1.79-5.434-1.79h-5.396V133.439z M188.066,140.94
			v15.642h7.532c2.249,0,3.928-0.628,5.04-1.885c1.112-1.256,1.667-3.128,1.667-5.616c0-2.613-0.475-4.623-1.424-6.03
			s-2.473-2.11-4.572-2.11H188.066z M177.387,165.139v-54.88h16.076c5.621,0,10.011,1.257,13.171,3.77s4.74,6.257,4.74,11.231
			c0,2.614-0.574,4.932-1.724,6.955c-1.149,2.022-2.873,3.536-5.171,4.541c2.873,0.679,4.997,2.148,6.371,4.41
			s2.061,4.913,2.061,7.953c0,5.252-1.493,9.234-4.478,11.948s-7.263,4.071-12.834,4.071H177.387z M168.618,141.053h-18.324v15.529
			h21.546v8.557h-32.227v-54.88h32.151v8.594h-21.471v13.645h18.324V141.053z M118.218,145.274h0.225l5.883-35.016h10.342
			l-10.53,54.88h-9.93l-7.682-33.621h-0.225l-7.607,33.621h-9.893l-10.529-54.88h10.342l5.883,35.016h0.225l7.869-35.016h7.645
			L118.218,145.274z"/>
	</defs>
	<clipPath id="SVGID_14_">
		<use xlink:href="#SVGID_13_"  overflow="visible"/>
	</clipPath>
	<g clip-path="url(#SVGID_14_)">
		<defs>
			<rect id="SVGID_15_" width="435" height="435"/>
		</defs>
		<clipPath id="SVGID_16_">
			<use xlink:href="#SVGID_15_"  overflow="visible"/>
		</clipPath>
		<rect x="73.272" y="105.259" clip-path="url(#SVGID_16_)" fill="#FFFFFF" width="287.22" height="64.88"/>
	</g>
</g>
<g>
	<defs>
		<path id="SVGID_17_" d="M311.597,220.825c0,0.115-0.007,0.248-0.021,0.4c-0.015,0.15-0.039,0.309-0.075,0.475
			c-0.035,0.166-0.078,0.338-0.129,0.518c-0.05,0.18-0.11,0.34-0.182,0.477c-0.072,0.137-0.154,0.248-0.248,0.334
			c-0.092,0.086-0.196,0.129-0.311,0.129c-0.158,0-0.376-0.094-0.655-0.279c-0.278-0.188-0.637-0.387-1.073-0.596
			c-0.438-0.207-0.955-0.406-1.557-0.594c-0.602-0.186-1.296-0.279-2.083-0.279c-0.873,0-1.64,0.133-2.298,0.398
			c-0.658,0.268-1.209,0.627-1.652,1.08c-0.444,0.453-0.777,0.969-0.999,1.545s-0.333,1.174-0.333,1.791
			c0,0.635,0.14,1.189,0.419,1.664c0.278,0.475,0.644,0.906,1.095,1.295c0.451,0.391,0.967,0.756,1.547,1.102
			c0.579,0.346,1.17,0.699,1.771,1.059c0.601,0.361,1.194,0.746,1.781,1.156s1.105,0.885,1.557,1.426
			c0.451,0.539,0.816,1.158,1.096,1.857c0.279,0.697,0.418,1.508,0.418,2.43c0,1.223-0.25,2.371-0.751,3.443
			c-0.501,1.074-1.214,2.01-2.137,2.809s-2.036,1.432-3.339,1.9s-2.756,0.701-4.359,0.701c-0.873,0-1.685-0.074-2.437-0.227
			c-0.751-0.15-1.428-0.338-2.028-0.561c-0.602-0.223-1.109-0.453-1.525-0.691c-0.415-0.238-0.715-0.449-0.901-0.637
			s-0.279-0.461-0.279-0.82c0-0.088,0.011-0.209,0.032-0.367c0.021-0.16,0.054-0.332,0.097-0.52s0.089-0.371,0.14-0.551
			c0.05-0.18,0.114-0.346,0.193-0.496c0.078-0.152,0.164-0.273,0.258-0.367c0.093-0.094,0.203-0.141,0.332-0.141
			c0.229,0,0.516,0.115,0.859,0.346s0.77,0.479,1.277,0.744c0.508,0.268,1.113,0.516,1.814,0.746s1.524,0.346,2.469,0.346
			c1.002,0,1.896-0.141,2.685-0.422c0.787-0.281,1.449-0.662,1.985-1.145c0.537-0.482,0.949-1.047,1.235-1.695
			s0.429-1.338,0.429-2.072c0-0.648-0.135-1.215-0.407-1.697c-0.272-0.48-0.63-0.916-1.073-1.307
			c-0.444-0.389-0.956-0.748-1.535-1.078c-0.58-0.332-1.167-0.678-1.762-1.037c-0.594-0.359-1.177-0.746-1.75-1.156
			c-0.572-0.41-1.08-0.885-1.523-1.426c-0.444-0.539-0.806-1.158-1.085-1.857c-0.278-0.697-0.419-1.514-0.419-2.451
			c0-1.137,0.223-2.203,0.666-3.195c0.443-0.994,1.074-1.865,1.89-2.613c0.815-0.75,1.804-1.34,2.963-1.771s2.455-0.648,3.887-0.648
			c0.687,0,1.342,0.059,1.964,0.174c0.623,0.115,1.186,0.256,1.686,0.42c0.502,0.166,0.932,0.346,1.289,0.541
			c0.357,0.193,0.602,0.355,0.73,0.486c0.129,0.129,0.221,0.262,0.278,0.398S311.597,220.624,311.597,220.825z M293.066,219.42
			c0,0.072-0.004,0.184-0.01,0.336c-0.008,0.15-0.029,0.312-0.064,0.484c-0.036,0.174-0.08,0.354-0.129,0.541
			c-0.051,0.188-0.119,0.355-0.205,0.508c-0.086,0.15-0.189,0.273-0.311,0.367c-0.122,0.094-0.254,0.141-0.397,0.141h-10.843
			l-1.762,8.768h9.341c0.172,0,0.301,0.059,0.386,0.174c0.086,0.115,0.129,0.287,0.129,0.518c0,0.072-0.01,0.184-0.031,0.334
			c-0.021,0.152-0.047,0.318-0.076,0.498c-0.027,0.18-0.07,0.355-0.128,0.529c-0.058,0.172-0.126,0.326-0.204,0.463
			s-0.176,0.252-0.29,0.346s-0.243,0.141-0.387,0.141h-9.318l-2.019,10h11.059c0.143,0,0.261,0.059,0.354,0.174
			c0.094,0.115,0.14,0.295,0.14,0.539c0,0.086-0.007,0.209-0.021,0.367s-0.039,0.324-0.075,0.496
			c-0.035,0.174-0.078,0.35-0.129,0.529c-0.05,0.18-0.117,0.346-0.203,0.498c-0.086,0.15-0.19,0.27-0.312,0.355
			c-0.121,0.086-0.254,0.129-0.396,0.129h-13.355c-0.158,0-0.312-0.025-0.462-0.074c-0.149-0.051-0.278-0.137-0.386-0.26
			s-0.184-0.281-0.227-0.475c-0.043-0.195-0.028-0.43,0.043-0.703l4.961-24.924c0.1-0.561,0.322-0.953,0.665-1.176
			c0.344-0.225,0.681-0.336,1.009-0.336h13.162C292.902,218.708,293.066,218.946,293.066,219.42z M270.5,221.752
			c0,0.102-0.011,0.229-0.032,0.379s-0.05,0.311-0.086,0.475c-0.036,0.166-0.083,0.34-0.14,0.52s-0.121,0.338-0.193,0.475
			c-0.071,0.137-0.15,0.244-0.236,0.324c-0.086,0.078-0.179,0.119-0.279,0.119c-0.215,0-0.504-0.131-0.869-0.389
			c-0.365-0.26-0.852-0.551-1.46-0.875s-1.349-0.619-2.223-0.887c-0.873-0.266-1.918-0.398-3.135-0.398
			c-1.274,0-2.466,0.191-3.575,0.572s-2.129,0.906-3.06,1.576s-1.761,1.461-2.491,2.375c-0.729,0.916-1.349,1.908-1.857,2.98
			c-0.508,1.074-0.895,2.201-1.158,3.381c-0.266,1.182-0.398,2.375-0.398,3.586c0,1.266,0.184,2.387,0.548,3.357
			c0.365,0.973,0.892,1.789,1.579,2.451c0.687,0.662,1.517,1.164,2.49,1.502c0.973,0.338,2.061,0.508,3.264,0.508
			c0.887,0,1.814-0.105,2.78-0.314s1.864-0.529,2.694-0.961l1.611-8.1h-6.42c-0.172,0-0.305-0.061-0.398-0.184
			c-0.092-0.121-0.139-0.297-0.139-0.527c0-0.102,0.011-0.234,0.032-0.4s0.05-0.334,0.085-0.508c0.037-0.172,0.086-0.346,0.15-0.518
			c0.064-0.174,0.141-0.328,0.227-0.465s0.182-0.244,0.289-0.324c0.107-0.078,0.226-0.119,0.354-0.119h8.825
			c0.4,0,0.69,0.137,0.869,0.41c0.18,0.273,0.219,0.641,0.118,1.102l-2.147,10.756c-0.057,0.273-0.132,0.494-0.225,0.658
			c-0.094,0.166-0.197,0.314-0.312,0.443c-0.129,0.131-0.454,0.32-0.978,0.572c-0.521,0.252-1.181,0.508-1.975,0.768
			c-0.795,0.258-1.689,0.486-2.685,0.68c-0.995,0.195-2.036,0.291-3.124,0.291c-1.861,0-3.5-0.24-4.917-0.723
			s-2.605-1.184-3.564-2.105s-1.688-2.037-2.19-3.348c-0.5-1.311-0.751-2.793-0.751-4.449c0-1.541,0.175-3.057,0.526-4.547
			c0.35-1.49,0.855-2.904,1.514-4.244c0.658-1.338,1.471-2.576,2.437-3.715c0.966-1.137,2.075-2.115,3.328-2.938
			c1.253-0.82,2.63-1.469,4.134-1.943c1.503-0.475,3.127-0.713,4.874-0.713c1.002,0,1.939,0.09,2.812,0.271
			c0.873,0.18,1.653,0.395,2.341,0.646s1.267,0.529,1.738,0.832c0.473,0.303,0.795,0.533,0.967,0.691s0.286,0.309,0.344,0.453
			C270.471,221.358,270.5,221.538,270.5,221.752z M234.148,222.422h-0.021l-7.516,13.932h9.619L234.148,222.422z M241.385,245.338
			c0.043,0.316,0.053,0.572,0.031,0.766c-0.021,0.195-0.1,0.342-0.236,0.443c-0.136,0.102-0.347,0.166-0.633,0.195
			c-0.287,0.027-0.673,0.043-1.16,0.043c-0.314,0-0.586-0.012-0.815-0.033s-0.404-0.057-0.526-0.107
			c-0.121-0.051-0.211-0.119-0.268-0.205c-0.058-0.086-0.094-0.195-0.107-0.324l-1.031-6.803h-11.573l-3.628,6.738
			c-0.072,0.143-0.154,0.262-0.248,0.355c-0.093,0.094-0.222,0.17-0.387,0.227c-0.164,0.059-0.379,0.098-0.644,0.119
			s-0.591,0.033-0.978,0.033c-0.429,0-0.772-0.02-1.03-0.055c-0.257-0.035-0.437-0.104-0.537-0.205s-0.129-0.248-0.086-0.443
			c0.043-0.193,0.143-0.449,0.301-0.766l14.471-25.961c0.102-0.158,0.209-0.287,0.322-0.389c0.115-0.102,0.266-0.18,0.451-0.238
			c0.187-0.057,0.422-0.096,0.709-0.117c0.286-0.021,0.637-0.033,1.052-0.033c0.473,0,0.855,0.012,1.149,0.033
			c0.293,0.021,0.529,0.061,0.708,0.117c0.179,0.059,0.304,0.141,0.376,0.25c0.071,0.107,0.121,0.24,0.15,0.398L241.385,245.338z
			 M218.753,220.825c0,0.115-0.007,0.248-0.021,0.4c-0.015,0.15-0.04,0.309-0.075,0.475s-0.078,0.338-0.129,0.518
			c-0.05,0.18-0.111,0.34-0.183,0.477s-0.153,0.248-0.247,0.334c-0.093,0.086-0.197,0.129-0.311,0.129
			c-0.157,0-0.375-0.094-0.655-0.279c-0.279-0.188-0.637-0.387-1.074-0.596c-0.437-0.207-0.956-0.406-1.557-0.594
			c-0.601-0.186-1.295-0.279-2.083-0.279c-0.874,0-1.639,0.133-2.298,0.398c-0.658,0.268-1.209,0.627-1.653,1.08
			s-0.776,0.969-0.999,1.545c-0.222,0.576-0.333,1.174-0.333,1.791c0,0.635,0.14,1.189,0.418,1.664
			c0.279,0.475,0.645,0.906,1.095,1.295c0.451,0.391,0.966,0.756,1.546,1.102s1.17,0.699,1.771,1.059
			c0.601,0.361,1.195,0.746,1.782,1.156s1.105,0.885,1.557,1.426c0.451,0.539,0.816,1.158,1.095,1.857
			c0.279,0.697,0.418,1.508,0.418,2.43c0,1.223-0.25,2.371-0.751,3.443c-0.501,1.074-1.213,2.01-2.136,2.809
			c-0.923,0.799-2.037,1.432-3.339,1.9c-1.303,0.469-2.756,0.701-4.359,0.701c-0.873,0-1.686-0.074-2.437-0.227
			c-0.751-0.15-1.428-0.338-2.029-0.561c-0.601-0.223-1.109-0.453-1.524-0.691s-0.716-0.449-0.902-0.637s-0.279-0.461-0.279-0.82
			c0-0.088,0.011-0.209,0.032-0.367c0.021-0.16,0.054-0.332,0.097-0.52s0.089-0.371,0.14-0.551s0.115-0.346,0.193-0.496
			c0.079-0.152,0.165-0.273,0.258-0.367c0.093-0.094,0.204-0.141,0.333-0.141c0.229,0,0.516,0.115,0.859,0.346
			c0.344,0.23,0.77,0.479,1.278,0.744c0.508,0.268,1.113,0.516,1.814,0.746c0.702,0.23,1.525,0.346,2.469,0.346
			c1.002,0,1.897-0.141,2.684-0.422c0.788-0.281,1.45-0.662,1.986-1.145s0.948-1.047,1.234-1.695c0.287-0.648,0.43-1.338,0.43-2.072
			c0-0.648-0.136-1.215-0.408-1.697c-0.272-0.48-0.629-0.916-1.073-1.307c-0.444-0.389-0.956-0.748-1.535-1.078
			c-0.58-0.332-1.167-0.678-1.761-1.037c-0.594-0.359-1.178-0.746-1.75-1.156c-0.573-0.41-1.081-0.885-1.524-1.426
			c-0.444-0.539-0.805-1.158-1.084-1.857c-0.279-0.697-0.419-1.514-0.419-2.451c0-1.137,0.222-2.203,0.666-3.195
			c0.443-0.994,1.073-1.865,1.889-2.613c0.816-0.75,1.804-1.34,2.963-1.771c1.159-0.432,2.455-0.648,3.886-0.648
			c0.687,0,1.342,0.059,1.965,0.174s1.185,0.256,1.686,0.42c0.501,0.166,0.93,0.346,1.288,0.541c0.358,0.193,0.601,0.355,0.73,0.486
			c0.129,0.129,0.222,0.262,0.279,0.398S218.753,220.624,218.753,220.825z M195.349,236.483c-0.344,1.756-0.888,3.297-1.632,4.621
			c-0.745,1.326-1.653,2.428-2.727,3.305c-1.074,0.879-2.283,1.541-3.628,1.988c-1.346,0.445-2.806,0.668-4.38,0.668
			c-1.661,0-3.103-0.227-4.327-0.68s-2.205-1.131-2.941-2.029c-0.737-0.9-1.221-2.02-1.45-3.359
			c-0.229-1.338-0.165-2.895,0.193-4.664l3.393-17.062c0.014-0.115,0.061-0.217,0.14-0.303c0.079-0.086,0.197-0.154,0.354-0.205
			c0.158-0.051,0.354-0.094,0.591-0.129c0.236-0.037,0.533-0.055,0.891-0.055s0.651,0.018,0.88,0.055
			c0.229,0.035,0.412,0.078,0.548,0.129c0.136,0.051,0.222,0.119,0.257,0.205c0.036,0.086,0.04,0.188,0.011,0.303l-3.371,17.02
			c-0.244,1.266-0.312,2.375-0.204,3.324c0.107,0.951,0.383,1.742,0.827,2.377c0.444,0.633,1.056,1.107,1.836,1.426
			c0.78,0.316,1.714,0.475,2.802,0.475c1.074,0,2.065-0.166,2.974-0.496c0.909-0.332,1.718-0.818,2.426-1.459
			s1.31-1.432,1.804-2.375c0.494-0.943,0.862-2.02,1.105-3.229l3.393-17.062c0.014-0.115,0.061-0.217,0.14-0.303
			s0.193-0.154,0.344-0.205c0.15-0.051,0.343-0.094,0.58-0.129c0.236-0.037,0.533-0.055,0.891-0.055c0.343,0,0.63,0.018,0.859,0.055
			c0.229,0.035,0.412,0.078,0.547,0.129c0.136,0.051,0.226,0.119,0.269,0.205s0.057,0.188,0.043,0.303L195.349,236.483z
			 M162.11,222.422h-0.021l-7.515,13.932h9.619L162.11,222.422z M169.346,245.338c0.043,0.316,0.054,0.572,0.032,0.766
			c-0.021,0.195-0.1,0.342-0.236,0.443c-0.136,0.102-0.347,0.166-0.633,0.195c-0.286,0.027-0.673,0.043-1.159,0.043
			c-0.315,0-0.587-0.012-0.816-0.033c-0.229-0.021-0.405-0.057-0.526-0.107s-0.211-0.119-0.269-0.205
			c-0.057-0.086-0.093-0.195-0.107-0.324l-1.031-6.803h-11.573l-3.629,6.738c-0.072,0.143-0.154,0.262-0.247,0.355
			c-0.093,0.094-0.222,0.17-0.387,0.227c-0.165,0.059-0.379,0.098-0.644,0.119c-0.265,0.021-0.591,0.033-0.977,0.033
			c-0.43,0-0.773-0.02-1.031-0.055s-0.437-0.104-0.537-0.205c-0.101-0.102-0.129-0.248-0.086-0.443
			c0.043-0.193,0.143-0.449,0.3-0.766l14.472-25.961c0.1-0.158,0.208-0.287,0.322-0.389c0.114-0.102,0.265-0.18,0.451-0.238
			c0.186-0.057,0.422-0.096,0.708-0.117c0.287-0.021,0.637-0.033,1.052-0.033c0.473,0,0.855,0.012,1.149,0.033
			s0.529,0.061,0.708,0.117c0.179,0.059,0.304,0.141,0.375,0.25c0.072,0.107,0.122,0.24,0.15,0.398L169.346,245.338z
			 M146.715,220.825c0,0.115-0.007,0.248-0.021,0.4c-0.014,0.15-0.039,0.309-0.075,0.475c-0.036,0.166-0.079,0.338-0.128,0.518
			c-0.05,0.18-0.111,0.34-0.183,0.477c-0.072,0.137-0.154,0.248-0.247,0.334c-0.093,0.086-0.197,0.129-0.311,0.129
			c-0.158,0-0.376-0.094-0.655-0.279c-0.279-0.188-0.637-0.387-1.073-0.596c-0.437-0.207-0.956-0.406-1.557-0.594
			c-0.601-0.186-1.295-0.279-2.083-0.279c-0.873,0-1.639,0.133-2.297,0.398c-0.659,0.268-1.209,0.627-1.653,1.08
			s-0.777,0.969-0.999,1.545c-0.222,0.576-0.333,1.174-0.333,1.791c0,0.635,0.14,1.189,0.419,1.664
			c0.279,0.475,0.644,0.906,1.095,1.295c0.451,0.391,0.966,0.756,1.546,1.102c0.58,0.346,1.17,0.699,1.771,1.059
			c0.602,0.361,1.195,0.746,1.782,1.156s1.106,0.885,1.557,1.426c0.451,0.539,0.816,1.158,1.095,1.857
			c0.279,0.697,0.419,1.508,0.419,2.43c0,1.223-0.25,2.371-0.751,3.443c-0.501,1.074-1.213,2.01-2.137,2.809s-2.036,1.432-3.339,1.9
			s-2.755,0.701-4.359,0.701c-0.873,0-1.686-0.074-2.437-0.227c-0.751-0.15-1.428-0.338-2.029-0.561
			c-0.602-0.223-1.109-0.453-1.525-0.691c-0.415-0.238-0.715-0.449-0.901-0.637c-0.187-0.188-0.279-0.461-0.279-0.82
			c0-0.088,0.011-0.209,0.032-0.367c0.021-0.16,0.054-0.332,0.097-0.52s0.089-0.371,0.14-0.551c0.05-0.18,0.114-0.346,0.193-0.496
			c0.079-0.152,0.165-0.273,0.258-0.367s0.204-0.141,0.333-0.141c0.229,0,0.515,0.115,0.859,0.346
			c0.343,0.23,0.769,0.479,1.277,0.744c0.508,0.268,1.113,0.516,1.814,0.746s1.524,0.346,2.469,0.346
			c1.002,0,1.896-0.141,2.684-0.422c0.787-0.281,1.449-0.662,1.986-1.145c0.537-0.482,0.949-1.047,1.235-1.695
			s0.429-1.338,0.429-2.072c0-0.648-0.136-1.215-0.408-1.697c-0.272-0.48-0.63-0.916-1.074-1.307
			c-0.444-0.389-0.956-0.748-1.535-1.078c-0.58-0.332-1.167-0.678-1.761-1.037s-1.177-0.746-1.75-1.156
			c-0.572-0.41-1.081-0.885-1.524-1.426c-0.444-0.539-0.805-1.158-1.084-1.857c-0.279-0.697-0.418-1.514-0.418-2.451
			c0-1.137,0.222-2.203,0.666-3.195c0.444-0.994,1.074-1.865,1.89-2.613c0.816-0.75,1.804-1.34,2.963-1.771
			c1.16-0.432,2.455-0.648,3.887-0.648c0.687,0,1.342,0.059,1.964,0.174s1.185,0.256,1.686,0.42
			c0.501,0.166,0.931,0.346,1.289,0.541c0.358,0.193,0.601,0.355,0.73,0.486c0.129,0.129,0.222,0.262,0.279,0.398
			C146.687,220.454,146.715,220.624,146.715,220.825z"/>
	</defs>
	<clipPath id="SVGID_18_">
		<use xlink:href="#SVGID_17_"  overflow="visible"/>
	</clipPath>
	<g clip-path="url(#SVGID_18_)">
		<defs>
			<rect id="SVGID_19_" width="435" height="435"/>
		</defs>
		<clipPath id="SVGID_20_">
			<use xlink:href="#SVGID_19_"  overflow="visible"/>
		</clipPath>
		<rect x="122.025" y="213.298" clip-path="url(#SVGID_20_)" fill="#4A4A4A" width="194.571" height="38.767"/>
	</g>
</g>
<g>
	<defs>
		<path id="SVGID_21_" d="M218.988,179.027c0,1.118,0.229,2.288,0.689,3.51c0.46,1.223,1.159,2.498,2.097,3.825l3.75-3.301
			c0.868-0.769,1.484-1.58,1.849-2.436c0.365-0.856,0.547-1.773,0.547-2.751c0-1.345-0.395-2.467-1.185-3.366
			s-1.862-1.349-3.216-1.349c-1.459,0-2.578,0.559-3.359,1.677C219.379,175.954,218.988,177.352,218.988,179.027z M223.103,206.898
			c1.337,0,2.644-0.302,3.919-0.904c1.276-0.602,2.436-1.462,3.477-2.58l-9.244-12.651l-0.234-0.288l-0.938,0.838
			c-1.667,1.624-2.783,3.087-3.347,4.388c-0.564,1.301-0.847,2.511-0.847,3.628c0,2.165,0.616,3.969,1.849,5.409
			S220.759,206.898,223.103,206.898z M219.482,188.353c-1.268-1.781-2.205-3.392-2.812-4.833c-0.607-1.44-0.911-2.92-0.911-4.439
			c0-2.776,0.69-4.92,2.07-6.431c1.38-1.511,3.276-2.266,5.69-2.266c2.239,0,4.031,0.711,5.377,2.135
			c1.346,1.423,2.019,3.209,2.019,5.356c0,1.589-0.36,2.956-1.081,4.1s-1.758,2.283-3.111,3.418l-3.438,3.064l8.984,12.181
			l0.156-0.026c0.659-1.117,1.18-2.414,1.562-3.89c0.381-1.476,0.572-3.052,0.572-4.728h2.943c0,2.234-0.287,4.291-0.859,6.168
			c-0.573,1.878-1.398,3.567-2.475,5.069l4.323,5.841h-3.828l-2.526-3.458c-1.285,1.293-2.687,2.284-4.205,2.974
			c-1.52,0.689-3.13,1.034-4.831,1.034c-3.194,0-5.725-0.938-7.591-2.815s-2.799-4.37-2.799-7.479c0-2.113,0.56-4.012,1.68-5.697
			c1.12-1.686,2.756-3.393,4.909-5.121L219.482,188.353z"/>
	</defs>
	<clipPath id="SVGID_22_">
		<use xlink:href="#SVGID_21_"  overflow="visible"/>
	</clipPath>
	<g clip-path="url(#SVGID_22_)">
		<defs>
			<rect id="SVGID_23_" width="435" height="435"/>
		</defs>
		<clipPath id="SVGID_24_">
			<use xlink:href="#SVGID_23_"  overflow="visible"/>
		</clipPath>
		<rect x="207.712" y="165.384" clip-path="url(#SVGID_24_)" fill="#4A4A4A" width="35.781" height="49.238"/>
	</g>
</g>
<g>
	<defs>
		<path id="SVGID_25_" d="M249.707,271.139c-4.52,0.863-9.768,1.48-15.791,1.791l-2.105,9.766l-1.609-9.615
			c-4.189,0.123-8.723,0.105-13.613-0.066c-0.708-0.025-1.408-0.053-2.099-0.08l-2.105,9.762l-1.663-9.936
			c-3.929-0.203-7.563-0.461-10.914-0.77l-2.309,10.705l-1.862-11.127c-4.387-0.492-8.22-1.074-11.527-1.734l-2.253,10.447
			l-1.905-11.385c-2.316-0.594-4.011-1.172-5.152-1.688c-0.186-0.084-0.33-0.154-0.433-0.209c-0.036-0.02-0.037-0.02-0.006,0
			c0.254,0.16,0.599,0.42,1.01,0.793c-4.555-4.125-11.585-3.77-15.702,0.795c-4.117,4.562-3.762,11.605,0.793,15.73
			c2.755,2.496,7.921,4.83,16.585,6.785c9.392,2.121,22.114,3.582,38.757,4.172c20.137,0.713,35.615-1.006,47.063-4.428
			c6.493-1.939,10.78-4.131,13.21-6.057c4.815-3.814,5.632-10.82,1.823-15.645s-10.8-5.643-15.615-1.826
			c0.21-0.166,0.343-0.262,0.39-0.293c-0.133,0.086-0.365,0.221-0.706,0.395c-1.279,0.652-3.078,1.369-5.456,2.08
			c-0.994,0.297-2.037,0.578-3.133,0.844l-2.143,9.936L249.707,271.139z"/>
	</defs>
	<clipPath id="SVGID_26_">
		<use xlink:href="#SVGID_25_"  overflow="visible"/>
	</clipPath>
	<g clip-path="url(#SVGID_26_)">
		<defs>
			<rect id="SVGID_27_" width="435" height="435"/>
		</defs>
		<clipPath id="SVGID_28_">
			<use xlink:href="#SVGID_27_"  overflow="visible"/>
		</clipPath>
		<rect x="151.798" y="259.918" clip-path="url(#SVGID_28_)" fill="#4A4A4A" width="133.499" height="40.516"/>
	</g>
</g>
<g>
	<defs>
		<path id="SVGID_29_" d="M217.244,378.356c-1.843-2.156-1.508-2.73-1.508-3.881c0-1.148,1.34-4.166,1.34-15.949v-14.367
			c0,0-0.268-20.527-1.425-21.498c-1.384-1.16-3.266-1.924-4.439-3.791s-1.508-2.402-1.508-5.875l2.01-12.947l4.188,13.65
			l2.856-13.65l2.871,13.65l4.188-13.65l2.011,12.947c0,3.473-0.335,4.008-1.508,5.875s-3.056,2.631-4.438,3.791
			c-1.158,0.971-1.426,21.498-1.426,21.498v14.367c0,11.783,1.341,14.801,1.341,15.949c0,1.15,0.335,1.725-1.508,3.881
			c-1.161,1.357-1.46,1.238-1.522,0.965C218.704,379.594,218.404,379.713,217.244,378.356z"/>
	</defs>
	<clipPath id="SVGID_30_">
		<use xlink:href="#SVGID_29_"  overflow="visible"/>
	</clipPath>
	<g clip-path="url(#SVGID_30_)">
		<defs>
			<rect id="SVGID_31_" width="435" height="435"/>
		</defs>
		<clipPath id="SVGID_32_">
			<use xlink:href="#SVGID_31_"  overflow="visible"/>
		</clipPath>
		<rect x="204.705" y="295.047" clip-path="url(#SVGID_32_)" fill="#4A4A4A" width="28.124" height="89.447"/>
	</g>
</g>
</svg>
