<?xml version="1.0" encoding="utf-8"?>
<!-- Generator: Adobe Illustrator 16.0.0, SVG Export Plug-In . SVG Version: 6.00 Build 0)  -->
<!DOCTYPE svg PUBLIC "-//W3C//DTD SVG 1.1//EN" "http://www.w3.org/Graphics/SVG/1.1/DTD/svg11.dtd">
<svg version="1.1" id="Layer_1" xmlns="http://www.w3.org/2000/svg" xmlns:xlink="http://www.w3.org/1999/xlink" x="0px" y="0px"
	 width="557.537px" height="116.362px" viewBox="115.672 94.686 557.537 116.362"
	 enable-background="new 115.672 94.686 557.537 116.362" xml:space="preserve">
<g>
	<g>
		<defs>
			<rect id="SVGID_1_" x="0" width="789" height="306"/>
		</defs>
		<clipPath id="SVGID_2_">
			<use xlink:href="#SVGID_1_"  overflow="visible"/>
		</clipPath>
		<path clip-path="url(#SVGID_2_)" fill="#FFFFFF" d="M338.198,153.174c0-35.931-22.307-57.872-60.153-57.872
			c-38.031,0-60.153,21.941-60.153,57.872c0,35.932,22.122,57.874,60.153,57.874C315.892,211.048,338.198,189.105,338.198,153.174
			 M318.086,153.174c0,33.229-19.015,41.52-40.041,41.52c-21.208,0-40.225-8.289-40.225-41.52c0-33.07,19.198-41.521,40.225-41.521
			S318.086,120.104,318.086,153.174"/>
	</g>
	<g>
		<defs>
			<rect id="SVGID_3_" x="0" width="789" height="306"/>
		</defs>
		<clipPath id="SVGID_4_">
			<use xlink:href="#SVGID_3_"  overflow="visible"/>
		</clipPath>
		<path clip-path="url(#SVGID_4_)" fill="#FFFFFF" d="M462.438,208.874v-98.366c0-12.954-9.273-12.903-19.361-12.903
			c0,51.327-0.019,111.269-0.019,111.269H462.438z"/>
	</g>
	<g>
		<defs>
			<rect id="SVGID_5_" x="0" width="789" height="306"/>
		</defs>
		<clipPath id="SVGID_6_">
			<use xlink:href="#SVGID_5_"  overflow="visible"/>
		</clipPath>
		<path clip-path="url(#SVGID_6_)" fill="#FFFFFF" d="M574.804,199.382c-3.069,7.115-6.05,8.8-13.717,9.076h-9.834l48.271-111.295
			h25.6l48.086,111.295c0,0-8.856-0.031-9.022-0.031c-8.885,0.007-12.202-2.036-15.411-9.045l-36.086-87.18h-2.013L574.804,199.382z
			"/>
	</g>
	<g>
		<defs>
			<rect id="SVGID_7_" x="0" width="789" height="306"/>
		</defs>
		<clipPath id="SVGID_8_">
			<use xlink:href="#SVGID_7_"  overflow="visible"/>
		</clipPath>
		<path clip-path="url(#SVGID_8_)" fill="#FFFFFF" d="M371.765,195.359h46.394c13.39,0,11.948,13.515,11.948,13.515l-58.342-0.013
			l-19.38,0.013V97.58c10.087,0,19.38-0.038,19.38,12.916V195.359z"/>
	</g>
	<g>
		<defs>
			<rect id="SVGID_9_" x="0" width="789" height="306"/>
		</defs>
		<clipPath id="SVGID_10_">
			<use xlink:href="#SVGID_9_"  overflow="visible"/>
		</clipPath>
		<path clip-path="url(#SVGID_10_)" fill="#FFFFFF" d="M207.712,175.412c0-25.199-28.054-27.605-49.092-33.223
			c-9.968-2.729-20.486-6.42-20.486-17.173c0-13.48,15.302-16.101,28.589-16.101c5.376,0,11.846,1.295,17.836,2.158
			c10.498,2.401,13.741-11.169,13.741-11.169c-4.206-1.933-17.718-5.218-30.637-5.218c-27.499,0-48.17,9.629-48.17,31.293
			c0,26.802,26.022,29.53,48.539,35.31c9.966,2.566,20.301,6.097,20.301,16.688c0,11.969-11.821,17.049-27.274,17.049
			c-10.189,0-17.109-0.746-27.103-4.402c-11.754-4.296-18.284,10.148-18.284,10.148c9.998,6.242,25.114,10.107,41.135,10.107
			C198.374,210.878,207.712,189.535,207.712,175.412"/>
	</g>
	<g>
		<defs>
			<rect id="SVGID_11_" x="0" width="789" height="306"/>
		</defs>
		<clipPath id="SVGID_12_">
			<use xlink:href="#SVGID_11_"  overflow="visible"/>
		</clipPath>
		<path clip-path="url(#SVGID_12_)" fill="#FFFFFF" d="M509.315,111.095h-22.066c-13.392,0-11.951-13.515-11.951-13.515
			l34.019,0.012l19.38-0.012h34.006c0,0,1.438,13.515-11.949,13.515h-22.067l0.012,97.779H509.3L509.315,111.095z"/>
	</g>
</g>
</svg>
